<?xml version="1.0" encoding="utf-8"?>
<!-- Generator: Adobe Illustrator 16.0.4, SVG Export Plug-In . SVG Version: 6.00 Build 0)  -->
<!DOCTYPE svg PUBLIC "-//W3C//DTD SVG 1.1//EN" "http://www.w3.org/Graphics/SVG/1.1/DTD/svg11.dtd">
<svg version="1.1" id="Capa_1" xmlns="http://www.w3.org/2000/svg" xmlns:xlink="http://www.w3.org/1999/xlink" x="0px" y="0px"
	 width="64px" height="64px" viewBox="0 0 64 64" enable-background="new 0 0 64 64" xml:space="preserve">
<path d="M32,1C14.879,1,1,14.879,1,32s13.879,31,31,31s31-13.879,31-31S49.121,1,32,1z M32,57C18.215,57,7,45.785,7,32
	S18.215,7,32,7s25,11.215,25,25S45.785,57,32,57z"/>
<path d="M31.575,46.918h4.005v6.643h-4.005V46.918z M10.78,28.851h6.67v5h-6.67V28.851z M47.499,40.836l3.649,2.107
	c0.326-0.58,0.625-1.178,0.898-1.789L48.5,39.105L47.499,40.836z M40.869,46.713l2.527,4.342c0.569-0.354,1.123-0.73,1.656-1.133
	l-2.455-4.216L40.869,46.713z M22.753,51.066l-1.728-1.006l2.535-4.354l1.728,1.007L22.753,51.066z M14.288,43.362l-1-1.731
	l4.371-2.524l1,1.731L14.288,43.362z M17.66,23.597l-4.371-2.525l1-1.732l4.371,2.525L17.66,23.597z M23.561,16.997l-2.535-4.353
	l1.728-1.006l2.535,4.353L23.561,16.997z"/>
<path d="M31.575,9.575V32H54C54,19.615,43.96,9.575,31.575,9.575z M37.822,27.575c0,0.631-0.438,1.143-0.979,1.143
	c-0.539,0-0.978-0.512-0.978-1.143v-4.412c0-0.631-0.511-1.143-1.142-1.143c-0.632,0-1.143-0.291-1.143-0.65
	c0-0.359,0.283-0.659,0.633-0.688c0.275-0.023,0.485-0.05,0.631-0.082c0.383-0.085,0.694-0.255,0.936-0.509
	c0.164-0.174,0.289-0.406,0.373-0.697c0.021-0.072,0.037-0.137,0.049-0.193c0.021-0.107,0.382-0.195,0.822-0.195
	c0.439,0,0.797,0.512,0.797,1.143V27.575L37.822,27.575z M46.471,27.914c-0.576,0.706-1.438,1.058-2.584,1.058
	c-0.923,0-1.682-0.248-2.275-0.744c-0.323-0.271-0.569-0.604-0.736-0.999c-0.246-0.582,0.173-1.11,0.698-1.11
	c0.524,0,0.983,0.24,1.099,0.512c0.075,0.178,0.171,0.327,0.286,0.449c0.214,0.225,0.526,0.338,0.935,0.338
	c0.473,0,0.832-0.166,1.08-0.499s0.371-0.751,0.371-1.256c0-0.496-0.115-0.914-0.347-1.256c-0.231-0.342-0.593-0.512-1.083-0.512
	c-0.232,0-0.432,0.029-0.602,0.087c-0.149,0.054-0.281,0.131-0.395,0.232c-0.191,0.169-0.663,0.346-1.135,0.324
	c-0.473-0.022-0.791-0.548-0.711-1.174l0.393-3.097c0.08-0.626,0.656-1.134,1.287-1.134h3.057c0.631,0,1.144,0.363,1.144,0.81
	c0,0.447-0.513,0.81-1.144,0.81h-1.68c-0.631,0-1.221,0.475-1.316,1.062c-0.097,0.586-0.028,0.963,0.162,0.855
	c0.139-0.08,0.258-0.139,0.354-0.175c0.275-0.103,0.613-0.154,1.01-0.154c0.803,0,1.503,0.27,2.1,0.81
	c0.599,0.54,0.896,1.326,0.896,2.358C47.333,26.407,47.045,27.209,46.471,27.914z"/>
</svg>
