<?xml version="1.0" encoding="utf-8"?>
<!-- Generator: Adobe Illustrator 16.0.4, SVG Export Plug-In . SVG Version: 6.00 Build 0)  -->
<!DOCTYPE svg PUBLIC "-//W3C//DTD SVG 1.1//EN" "http://www.w3.org/Graphics/SVG/1.1/DTD/svg11.dtd">
<svg version="1.1" id="Capa_1" xmlns="http://www.w3.org/2000/svg" xmlns:xlink="http://www.w3.org/1999/xlink" x="0px" y="0px"
	 width="64px" height="64px" viewBox="0 0 64 64" enable-background="new 0 0 64 64" xml:space="preserve">
<path d="M32,1C14.879,1,1,14.879,1,32s13.879,31,31,31s31-13.879,31-31S49.121,1,32,1z M32,57C18.215,57,7,45.785,7,32
	S18.215,7,32,7s25,11.215,25,25S45.785,57,32,57z"/>
<path d="M11.547,29.5h6.998v5h-6.998V29.5z M24.068,52.662l-1.728-1.006L25,47.088l1.729,1.007L24.068,52.662z M15.205,44.561
	l-1-1.732l4.585-2.649l1,1.731L15.205,44.561z M18.79,23.821l-4.585-2.649l1-1.732l4.586,2.65L18.79,23.821z M25.001,16.914
	l-2.66-4.567l1.729-1.006l2.66,4.567L25.001,16.914z M45.833,29.381c-0.203,0.625-0.306,1.587-0.306,2.886
	c0,1.24,0.103,2.188,0.306,2.844c0.203,0.658,0.62,0.986,1.25,0.986s1.043-0.328,1.239-0.986c0.195-0.656,0.294-1.604,0.294-2.844
	c0-1.299-0.099-2.261-0.294-2.886c-0.196-0.625-0.609-0.937-1.239-0.937C46.452,28.443,46.036,28.756,45.833,29.381z"/>
<path d="M31.575,9.575V32v22.425C43.96,54.425,54,44.385,54,32S43.96,9.575,31.575,9.575z M41.323,36.785
	c-0.632,0.691-1.567,1.038-2.806,1.038c-1.526,0-2.586-0.498-3.181-1.495c-0.181-0.309-0.315-0.672-0.403-1.092
	c-0.113-0.541,0.332-0.991,0.883-0.991H35.9c0.552,0,0.99,0.248,1.043,0.547c0.035,0.196,0.09,0.371,0.164,0.524
	c0.258,0.521,0.726,0.781,1.404,0.781c0.414,0,0.777-0.144,1.086-0.429c0.31-0.285,0.465-0.694,0.465-1.231
	c0-0.709-0.287-1.183-0.86-1.42c-0.19-0.078-0.443-0.134-0.761-0.166c-0.43-0.045-0.782-0.375-0.782-0.794s0.327-0.755,0.728-0.798
	c0.312-0.033,0.547-0.087,0.711-0.161c0.469-0.208,0.703-0.63,0.703-1.265c0-0.412-0.119-0.746-0.359-1.004
	c-0.24-0.258-0.578-0.387-1.014-0.387c-0.5,0-0.867,0.159-1.102,0.476c-0.127,0.171-0.219,0.373-0.273,0.606
	c-0.086,0.36-0.507,0.666-1.054,0.666s-0.983-0.35-0.908-0.772c0.046-0.258,0.11-0.509,0.193-0.752
	c0.174-0.422,0.446-0.811,0.817-1.168c0.278-0.253,0.607-0.446,0.988-0.58c0.383-0.134,0.85-0.201,1.405-0.201
	c1.03,0,1.86,0.267,2.493,0.8c0.632,0.533,0.947,1.248,0.947,2.146c0,0.635-0.188,1.17-0.565,1.607
	c-0.111,0.127-0.224,0.235-0.338,0.324c-0.205,0.159-0.181,0.267,0.045,0.421c0.114,0.079,0.241,0.182,0.382,0.311
	c0.541,0.501,0.811,1.185,0.811,2.053C42.27,35.292,41.953,36.094,41.323,36.785z M49.973,28.146
	c0.553,0.967,0.828,2.341,0.828,4.121c0,1.78-0.275,3.151-0.828,4.113c-0.554,0.962-1.517,1.443-2.891,1.443
	s-2.337-0.481-2.891-1.443c-0.553-0.962-0.828-2.333-0.828-4.113c0-1.78,0.275-3.154,0.828-4.121c0.554-0.967,1.517-1.45,2.891-1.45
	C48.456,26.695,49.419,27.179,49.973,28.146z"/>
</svg>
