<?xml version="1.0" encoding="utf-8"?>
<!-- Generator: Adobe Illustrator 16.0.4, SVG Export Plug-In . SVG Version: 6.00 Build 0)  -->
<!DOCTYPE svg PUBLIC "-//W3C//DTD SVG 1.1//EN" "http://www.w3.org/Graphics/SVG/1.1/DTD/svg11.dtd">
<svg version="1.1" id="Capa_1" xmlns="http://www.w3.org/2000/svg" xmlns:xlink="http://www.w3.org/1999/xlink" x="0px" y="0px"
	 width="64px" height="64px" viewBox="0 0 64 64" enable-background="new 0 0 64 64" xml:space="preserve">
<path d="M32,1C14.879,1,1,14.879,1,32s13.879,31,31,31s31-13.879,31-31S49.121,1,32,1z M32,57C18.215,57,7,45.785,7,32
	S18.215,7,32,7s25,11.215,25,25S45.785,57,32,57z"/>
<path d="M31.7,9.575V32H9.274c0,12.385,10.04,22.425,22.425,22.425c12.385,0,22.426-10.04,22.426-22.425S44.085,9.575,31.7,9.575z
	 M31.397,45.678c-0.407,0-0.736,0.473-0.736,1.057v0.689c0,0.583-0.473,1.057-1.056,1.057h-0.394c-0.583,0-1.056-0.474-1.056-1.057
	v-0.689c0-0.584-0.473-1.057-1.056-1.057h-3.043c-0.583,0-1.056-0.473-1.056-1.056v-0.125c0-0.583,0.245-1.46,0.547-1.959
	l3.693-6.097c0.302-0.5,1.02-0.903,1.603-0.903h0.762c0.583,0,1.056,0.473,1.056,1.056v6.025c0,0.583,0.33,1.056,0.736,1.056
	c0.407,0,0.736,0.448,0.736,1.001S31.804,45.678,31.397,45.678z M41.07,47.402c-0.771,0.947-1.926,1.42-3.463,1.42
	c-1.238,0-2.256-0.332-3.051-0.997c-0.553-0.462-0.936-1.06-1.146-1.79c-0.162-0.561,0.292-1.039,0.875-1.039h0.439
	c0.582,0,1.1,0.322,1.254,0.688c0.102,0.237,0.229,0.438,0.383,0.602c0.287,0.302,0.705,0.453,1.255,0.453
	c0.633,0,1.116-0.223,1.446-0.668c0.332-0.446,0.498-1.008,0.498-1.685c0-0.665-0.156-1.226-0.467-1.684s-0.795-0.687-1.451-0.687
	c-0.312,0-0.58,0.039-0.807,0.116c-0.202,0.072-0.378,0.177-0.529,0.312c-0.257,0.227-0.849,0.466-1.431,0.438l-0.185-0.009
	c-0.582-0.027-0.996-0.518-0.922-1.098l0.647-5.099c0.073-0.577,0.606-1.047,1.188-1.047h5.054c0.583,0,1.056,0.474,1.056,1.056
	v0.062c0,0.583-0.473,1.057-1.056,1.057h-3.206c-0.583,0-1.133,0.465-1.227,1.041l-0.125,0.764c-0.094,0.574,0.026,0.91,0.279,0.765
	c0.188-0.108,0.346-0.187,0.475-0.235c0.371-0.138,0.822-0.207,1.354-0.207c1.076,0,2.015,0.362,2.815,1.088
	c0.803,0.724,1.203,1.777,1.203,3.16C42.229,45.382,41.842,46.457,41.07,47.402z"/>
<path d="M13.66,20.441l4.586,2.65l-1,1.732l-4.586-2.65L13.66,20.441z M22.522,12.336l2.66,4.567l-1.729,1.006l-2.66-4.567
	L22.522,12.336z M27.626,38.98l-2.192,3.781c-0.292,0.506-0.057,0.914,0.526,0.914h1.139c0.583,0,1.056-0.473,1.056-1.056v-3.498
	C28.155,38.539,27.918,38.475,27.626,38.98z"/>
</svg>
