<?xml version="1.0" encoding="iso-8859-1"?>
<!-- Generator: Adobe Illustrator 16.0.0, SVG Export Plug-In . SVG Version: 6.00 Build 0)  -->
<!DOCTYPE svg PUBLIC "-//W3C//DTD SVG 1.1//EN" "http://www.w3.org/Graphics/SVG/1.1/DTD/svg11.dtd">
<svg version="1.1" id="Layer_1" xmlns="http://www.w3.org/2000/svg" xmlns:xlink="http://www.w3.org/1999/xlink" x="0px" y="0px"
	 width="25.787px" height="32px" viewBox="0 0 25.787 32" style="enable-background:new 0 0 25.787 32;" xml:space="preserve">
<path d="M25.118,20.76c-0.12,0.59-0.606,2.193-1.398,2.52c-0.275,0.112-0.577,0.056-0.923-0.175
	c-1.669-1.112-2.648-4.126-2.879-4.907l-0.117-3.724c0,0-3.636-0.137-3.624-8.937l0.021-0.002c-0.002-0.02-0.009-0.078-0.021-0.166
	c0.001-0.021,0-0.041,0.001-0.062c-0.003,0-0.007,0-0.01,0C16.02,4.257,15.267,0,12.878,0c-0.004,0-0.009,0-0.013,0
	c-2.488,0.017-3.203,4.623-3.311,5.44c-0.004,0-0.009,0-0.014,0c0.001,0.036,0,0.072,0.001,0.108
	C9.541,5.551,9.541,5.557,9.54,5.559h0.002c0.042,8.909-3.607,8.915-3.607,8.915L5.81,18.395c-0.311,0.999-1.265,3.674-2.818,4.71
	c-0.347,0.23-0.648,0.287-0.923,0.175c-0.792-0.326-1.278-1.93-1.398-2.52L0,20.896c0.052,0.254,0.539,2.491,1.808,3.015
	c0.178,0.073,0.359,0.11,0.545,0.11c0.33,0,0.67-0.116,1.018-0.348c1.055-0.704,1.842-2.016,2.373-3.181l-0.34,10.75l7.417,0.749V32
	l0.047-0.004L12.915,32v-0.009l7.416-0.749l-0.344-10.878c0.531,1.196,1.337,2.579,2.431,3.309c0.348,0.231,0.688,0.348,1.018,0.348
	c0.186,0,0.367-0.037,0.545-0.11c1.269-0.523,1.756-2.761,1.807-3.015L25.118,20.76z M12.82,5.596c-0.314,0-1.578-0.098-2.579-0.139
	c0.197-1.479,0.979-4.764,2.629-4.773c0.002,0,0.005,0,0.007,0c1.606,0,2.39,3.137,2.607,4.655
	c-0.998,0.074-2.255,0.257-2.569,0.257C12.915,5.596,12.88,5.596,12.82,5.596z"/>
<g>
</g>
<g>
</g>
<g>
</g>
<g>
</g>
<g>
</g>
<g>
</g>
<g>
</g>
<g>
</g>
<g>
</g>
<g>
</g>
<g>
</g>
<g>
</g>
<g>
</g>
<g>
</g>
<g>
</g>
</svg>
