<?xml version="1.0" encoding="utf-8"?>
<!-- Generator: Adobe Illustrator 16.0.0, SVG Export Plug-In . SVG Version: 6.00 Build 0)  -->
<!DOCTYPE svg PUBLIC "-//W3C//DTD SVG 1.1//EN" "http://www.w3.org/Graphics/SVG/1.1/DTD/svg11.dtd">
<svg version="1.1" id="Layer_1" xmlns="http://www.w3.org/2000/svg" xmlns:xlink="http://www.w3.org/1999/xlink" x="0px" y="0px"
	 width="38.348px" height="31.924px" viewBox="0 0 38.348 31.924" enable-background="new 0 0 38.348 31.924" xml:space="preserve">
<g id="b191_bow">
	<path d="M32.601,3.102C32.347,1.711,27.08,1.495,20.43,2.498c-0.367-1.6-1.601-2.693-2.827-2.469
		c-1.229,0.23-1.99,1.693-1.761,3.318C9.372,4.773,4.626,6.824,4.881,8.199C5.163,9.738,32.883,4.641,32.601,3.102z"/>
	<path d="M36.559,6.691l1.039-0.979c-0.06-0.064-1.494-1.545-4.179-1.221c-1.355,0.164-3.912,2.447-7.185,5.713H6.302v1.287
		c-0.535-0.094-1.693-0.519-3.041-1.83l-1.195,1.227c1.695,1.655,3.088,2.715,4.236,3.219v14.391c0,1.896,1.537,3.426,3.43,3.426
		H28.29c1.893,0,3.43-1.53,3.43-3.426V14.107c1.148-0.504,2.541-1.564,4.236-3.219l-1.195-1.227
		c-1.348,1.311-2.158,1.576-3.041,1.83v-1.287h-3.443c2.218-2.162,4.486-4.191,5.314-4.295C35.532,5.676,36.522,6.658,36.559,6.691z
		"/>
</g>
<g id="Capa_1">
</g>
</svg>
