<?xml version="1.0" encoding="utf-8"?>
<!-- Generator: Adobe Illustrator 16.0.0, SVG Export Plug-In . SVG Version: 6.00 Build 0)  -->
<!DOCTYPE svg PUBLIC "-//W3C//DTD SVG 1.1//EN" "http://www.w3.org/Graphics/SVG/1.1/DTD/svg11.dtd">
<svg version="1.1" id="Layer_1" xmlns="http://www.w3.org/2000/svg" xmlns:xlink="http://www.w3.org/1999/xlink" x="0px" y="0px"
	 width="50px" height="50px" viewBox="0 0 50 50" enable-background="new 0 0 50 50" xml:space="preserve">
<g>
	<path d="M31.358,25.026L31.315,25l-0.045-0.022c-0.077-0.04-2.107-1.136-2.107-4.366c0-1.147,0.088-1.888,0.188-2.356
		c0.458-0.269,0.794-0.606,0.955-1.023l0.064-0.199l0.016-0.088c0.018-0.094,0.028-0.187,0.028-0.271
		c0-1.043-0.963-1.698-2.254-2.067c-0.141,0.041-0.273,0.082-0.446,0.116v0.793c1.037,0.271,1.715,0.688,1.715,1.158
		c0,0.093-0.033,0.181-0.081,0.269l-0.097,0.123l-0.108,0.117l-0.211,0.158l-0.083,0.051c-0.102,0.059-0.21,0.118-0.333,0.172
		c-0.809,0.354-2.075,0.587-3.514,0.587c-1.44,0-2.707-0.232-3.516-0.587c-0.123-0.055-0.232-0.113-0.333-0.172l-0.083-0.051
		l-0.212-0.158l-0.107-0.117l-0.098-0.123c-0.048-0.088-0.081-0.176-0.081-0.269c0-0.47,0.679-0.887,1.715-1.158v-0.793
		c-0.172-0.034-0.305-0.075-0.445-0.116c-1.292,0.37-2.254,1.024-2.254,2.067c0,0.085,0.01,0.178,0.028,0.271l0.016,0.088
		l0.064,0.199c0.161,0.417,0.497,0.755,0.955,1.023c0.1,0.47,0.188,1.21,0.188,2.356c0,3.229-2.045,4.325-2.132,4.369L18.668,25
		l-0.044,0.026c-2.787,1.75-4.451,4.576-4.451,7.56c0,4.692,3.946,7.383,10.827,7.383s10.827-2.69,10.827-7.383
		C35.827,29.609,34.156,26.783,31.358,25.026z M15.492,30.441c0.2-0.645,0.489-1.258,0.854-1.833
		C15.981,29.184,15.694,29.798,15.492,30.441z M16.347,28.608c0.689-1.081,1.643-2.021,2.801-2.748c0,0,2.674-1.312,2.674-5.249
		c0-0.782-0.039-1.404-0.102-1.905c0.982,0.3,2.172,0.428,3.281,0.428c1.107,0,2.297-0.128,3.279-0.428
		c-0.062,0.501-0.101,1.124-0.101,1.905c0,3.938,2.656,5.249,2.656,5.249c1.158,0.727,2.115,1.667,2.809,2.748H16.347z
		 M33.643,28.608c0.368,0.574,0.66,1.188,0.862,1.833C34.3,29.798,34.011,29.183,33.643,28.608z"/>
	<path d="M22.778,14.308v2.536c0,0.245,0.994,0.445,2.222,0.445c1.227,0,2.221-0.2,2.221-0.445v-2.536
		c0.887-0.135,1.47-0.347,1.47-0.585V10.77c0-0.406-1.653-0.738-3.691-0.738c-2.039,0-3.692,0.332-3.692,0.738v2.953
		C21.309,13.961,21.891,14.173,22.778,14.308z"/>
</g>
</svg>
