<?xml version="1.0" encoding="iso-8859-1"?>
<!-- Generator: Adobe Illustrator 16.0.0, SVG Export Plug-In . SVG Version: 6.00 Build 0)  -->
<!DOCTYPE svg PUBLIC "-//W3C//DTD SVG 1.1//EN" "http://www.w3.org/Graphics/SVG/1.1/DTD/svg11.dtd">
<svg version="1.1" xmlns="http://www.w3.org/2000/svg" xmlns:xlink="http://www.w3.org/1999/xlink" x="0px" y="0px"
	 width="28.469px" height="33.131px" viewBox="0 0 28.469 33.131" style="enable-background:new 0 0 28.469 33.131;"
	 xml:space="preserve">
<g id="b149_recipes_book">
	<polygon style="fill-rule:evenodd;clip-rule:evenodd;" points="1.596,29.35 3.198,29.35 3.198,26.25 1.596,26.25 1.596,24.883 
		3.198,24.883 3.198,22.07 1.596,22.07 1.596,20.701 3.198,20.701 3.198,17.814 1.596,17.814 1.596,16.449 3.198,16.449 
		3.198,13.561 1.596,13.561 1.596,12.193 3.198,12.193 3.198,9.59 1.596,9.59 1.596,8.225 3.198,8.225 3.198,3.473 0,3.473 
		0,33.131 3.198,33.131 3.198,30.721 1.596,30.721 	"/>
	<rect x="3.198" y="8.225" style="fill-rule:evenodd;clip-rule:evenodd;" width="1.354" height="1.365"/>
	<rect x="3.198" y="12.193" style="fill-rule:evenodd;clip-rule:evenodd;" width="1.354" height="1.367"/>
	<rect x="3.198" y="16.449" style="fill-rule:evenodd;clip-rule:evenodd;" width="1.354" height="1.365"/>
	<rect x="3.198" y="20.701" style="fill-rule:evenodd;clip-rule:evenodd;" width="1.354" height="1.369"/>
	<rect x="3.198" y="24.883" style="fill-rule:evenodd;clip-rule:evenodd;" width="1.354" height="1.367"/>
	<rect x="3.198" y="29.35" style="fill-rule:evenodd;clip-rule:evenodd;" width="1.354" height="1.371"/>
	<path style="fill-rule:evenodd;clip-rule:evenodd;" d="M28.468,30.1V1.143C28.468,0.23,27.324,0,27.324,0H3.221
		C1.126,0,0.311,1.373,0,2.438h3.452h21.358c1.293,0,1.258,1.139,1.258,1.139v26.473h-1.502V3.473H4.552v4.752h1.371V9.59H4.552
		v2.604h1.371v1.367H4.552v2.889h1.371v1.365H4.552v2.887h1.371v1.369H4.552v2.812h1.371v1.367H4.552v3.1h1.371v1.371H4.552v2.41
		h20.015v-1.74h1.468v0.004l1.211-0.004C28.561,31.391,28.468,30.1,28.468,30.1z M20.768,15.656
		c-0.947,0.945-2.176,1.307-3.021,0.969l0.052,0.055l-1.772,1.775l3.968,3.967c0,0,0.108,0.873-0.875,0.873l-3.97-3.965
		l-3.982,3.986c0,0-0.878,0.113-0.878-0.873l3.991-3.988l-1.797-1.795l0.009-0.014c-0.817,0.328-1.321,0.67-2.212-0.162
		l-0.003,0.006l-2.687-2.688l0.426-0.434l2.816,2.389l0.504-0.512l-2.584-2.713l0.41-0.412l2.705,2.6l0.596-0.596l-2.461-2.736
		l0.449-0.449l2.685,2.689v0.004c0.831,0.887,0.492,1.391,0.162,2.211l0.057-0.059l1.794,1.797l1.778-1.773l0.011,0.008
		c-0.342-0.844,0.023-2.076,0.968-3.021c1.151-1.15,2.723-1.439,3.509-0.65C22.206,12.934,21.917,14.506,20.768,15.656z"/>
</g>
<g id="Capa_1">
</g>
</svg>
