<?xml version="1.0" encoding="iso-8859-1"?>
<!-- Generator: Adobe Illustrator 16.0.0, SVG Export Plug-In . SVG Version: 6.00 Build 0)  -->
<!DOCTYPE svg PUBLIC "-//W3C//DTD SVG 1.1//EN" "http://www.w3.org/Graphics/SVG/1.1/DTD/svg11.dtd">
<svg version="1.1" id="Layer_1" xmlns="http://www.w3.org/2000/svg" xmlns:xlink="http://www.w3.org/1999/xlink" x="0px" y="0px"
	 width="23.719px" height="31.394px" viewBox="0 0 23.719 31.394" style="enable-background:new 0 0 23.719 31.394;"
	 xml:space="preserve">
<g>
	<path d="M1.026,4.407V1.548l0.438-0.526h21.563V0H0.984L0.003,1.179v3.229H0v26.986h23.719V4.407H1.026z M12.117,26.388
		c-3.467,0-6.277-2.81-6.277-6.276c0-3.466,2.811-6.276,6.277-6.276c3.466,0,6.276,2.811,6.276,6.276
		C18.394,23.578,15.583,26.388,12.117,26.388z M20.332,9.686H4.817V8.164h15.515V9.686z"/>
	<polygon points="11.551,17.762 11.551,16.876 10.706,17.198 10.906,18.365 	"/>
	<polygon points="12.217,22.313 12.859,21.709 12.859,20.823 12.014,21.146 	"/>
	<polygon points="13.095,16.876 12.25,17.198 13.095,17.804 	"/>
	<polygon points="14.069,19.877 13.484,19.211 12.859,19.856 13.172,20.541 13.908,20.421 	"/>
	<polygon points="10.545,21.044 11.289,21.044 11.432,20.038 10.545,20.601 	"/>
	<polygon points="13.936,22.959 13.936,23.402 14.683,23.402 14.379,22.677 	"/>
	<polygon points="15.328,18.486 14.886,18.769 14.886,19.21 15.629,19.21 	"/>
	<polygon points="11.931,18.646 11.488,18.929 11.488,19.371 12.231,19.371 	"/>
	<polygon points="14.008,21.085 13.566,21.367 13.566,21.81 14.31,21.81 	"/>
	<polygon points="14.379,17.259 13.938,17.541 13.938,17.982 14.681,17.982 	"/>
	<polygon points="9.82,18.597 9.82,17.932 8.492,19.262 9.497,19.584 9.82,19.766 10.183,18.85 	"/>
	<polygon points="9.337,21.931 9.337,20.964 8.49,21.326 	"/>
	<polygon points="15.681,21.568 15.681,20.602 14.834,20.963 	"/>
	<polygon points="10.003,22.475 10.125,23.039 11.01,23.039 11.13,22.436 11.432,21.831 10.688,21.831 	"/>
	<polygon points="11.974,23.481 12.698,23.844 12.901,23.481 12.698,23.039 	"/>
</g>
<g>
</g>
<g>
</g>
<g>
</g>
<g>
</g>
<g>
</g>
<g>
</g>
<g>
</g>
<g>
</g>
<g>
</g>
<g>
</g>
<g>
</g>
<g>
</g>
<g>
</g>
<g>
</g>
<g>
</g>
</svg>
