<?xml version="1.0" encoding="utf-8"?>
<!-- Generator: Adobe Illustrator 16.0.0, SVG Export Plug-In . SVG Version: 6.00 Build 0)  -->
<!DOCTYPE svg PUBLIC "-//W3C//DTD SVG 1.1//EN" "http://www.w3.org/Graphics/SVG/1.1/DTD/svg11.dtd">
<svg version="1.1" id="Layer_1" xmlns="http://www.w3.org/2000/svg" xmlns:xlink="http://www.w3.org/1999/xlink" x="0px" y="0px"
	 width="50px" height="50px" viewBox="0 0 50 50" enable-background="new 0 0 50 50" xml:space="preserve">
<path fill-rule="evenodd" clip-rule="evenodd" d="M35.628,35.435V12.246c0-0.85-0.696-1.546-1.546-1.546H15.917
	c-0.85,0-1.546,0.696-1.546,1.546v1.546v21.643v2.319c0,0.85,0.696,1.546,1.546,1.546h18.165c0.567,0,1.061-0.313,1.33-0.773H17.463
	c-0.85,0-1.546-0.696-1.546-1.546h18.165C34.933,36.981,35.628,36.286,35.628,35.435z M19.652,31.384c-0.276,0.276-0.724,0.276-1,0
	c-0.275-0.276-0.275-0.724,0.001-1l4.407-4.408l1,1L19.652,31.384z M30.38,31.446c-0.277,0.277-0.724,0.276-1.001,0l-7.494-7.495
	c-0.033-0.033-0.05-0.074-0.076-0.111c-1.085,0.516-2.64,0.145-3.797-1.012c-1.379-1.38-1.658-3.338-0.624-4.373
	c1.034-1.034,2.992-0.754,4.371,0.625c1.157,1.157,1.528,2.713,1.012,3.798c0.038,0.025,0.079,0.041,0.113,0.075l7.494,7.494
	C30.655,30.723,30.656,31.171,30.38,31.446z M33.124,20.66l-3.21,3.211c-0.025,0.025-0.055,0.04-0.084,0.056
	c-1.095,0.975-2.221,0.982-3.137,0.393c-0.018,0.022-0.025,0.049-0.046,0.069l-0.737,0.737l-1-0.999l0.739-0.738
	c0.019-0.02,0.046-0.028,0.069-0.045c-0.59-0.917-0.583-2.043,0.393-3.137c0.016-0.028,0.03-0.059,0.055-0.083l3.211-3.212
	c0.148-0.149,0.388-0.149,0.537,0c0.148,0.148,0.148,0.388-0.002,0.536l-3.104,3.105l0.536,0.536l3.104-3.105
	c0.148-0.148,0.388-0.148,0.537,0c0.146,0.147,0.146,0.386-0.001,0.535l-3.104,3.105l0.537,0.536l3.105-3.104
	c0.148-0.148,0.386-0.149,0.535-0.001c0.148,0.148,0.148,0.388-0.001,0.536l-3.104,3.104l0.536,0.535l3.103-3.105
	c0.149-0.148,0.389-0.148,0.536,0C33.273,20.271,33.273,20.512,33.124,20.66z"/>
<g id="Ribbon_6">
	<g id="Regal_Vector_Pack_02">
	</g>
</g>
</svg>
