<?xml version="1.0" encoding="utf-8"?>
<!-- Generator: Adobe Illustrator 16.0.4, SVG Export Plug-In . SVG Version: 6.00 Build 0)  -->
<!DOCTYPE svg PUBLIC "-//W3C//DTD SVG 1.1//EN" "http://www.w3.org/Graphics/SVG/1.1/DTD/svg11.dtd">
<svg version="1.1" id="Layer_1" xmlns="http://www.w3.org/2000/svg" xmlns:xlink="http://www.w3.org/1999/xlink" x="0px" y="0px"
	 width="32px" height="30.582px" viewBox="0 0 32 30.582" enable-background="new 0 0 32 30.582" xml:space="preserve">
<g>
	<path d="M28.005,8.306c-0.698,0.246-1.646,1.209-2.062,1.659c0-1.9,0-3.278,0-3.278L16.48,6.641V6.637l-0.481,0.002L15.52,6.637
		v0.004L6.057,6.687c0,0,0,1.378,0,3.277C5.64,9.514,4.693,8.552,3.995,8.306C3.075,7.98,0,8.306,0,8.306V9.55
		c0,0,3.021-0.105,3.671,0.271c0.65,0.378,1.353,3.571,1.894,3.571c0.12,0,0.295,0,0.492,0c0,3.438,0,7.03,0,7.613
		c0,1.164,1.112,2.937,3.238,2.937c0.435,0,0.997,0,1.608,0c0-1.688,0-3.326,0-3.539c0.353-0.953,0.682-2.608,0.183-3.311
		c-0.912-0.275-1.959-1.517-1.958-3.255c0-1.728,0.934-3.312,2.592-3.34c0-0.002,0-0.003,0-0.003c0.008,0.001,0.034,0,0.042,0.001
		c1.659,0.027,2.593,1.614,2.593,3.342c0,1.738-1.046,2.979-1.959,3.256c-0.499,0.7-0.169,2.354,0.183,3.312
		c0,0.213,0,1.853,0,3.539c1.105,0,2.195,0,2.94,0c0.395,0,0.684,0,0.837,0c0-1.671,0-3.297-0.001-3.508
		c0-0.402,1.011-2.107-0.47-3.777c-0.449-0.36-0.736-0.916-0.736-1.535c0-0.057,0.012-0.209,0.012-0.209l0.5-4.02h0.412
		l-0.152,4.752h0.531v-4.75l0.437-0.001v4.751h0.448v-4.75l0.397-0.001v4.721l0.541,0.002l-0.135-4.723h0.45l0.488,4.238
		c0,0,0,0.089-0.002,0.125c-0.034,0.511-0.265,0.966-0.612,1.298c-0.002,0.001-0.005,0.005-0.007,0.006
		c-1.427,1.458-0.571,3.419-0.569,3.891c0,0.242,0,1.846,0,3.49c0.893,0,1.911,0,2.848,0c-0.004-0.562-0.006-0.998-0.006-1.121
		c0.121-0.222,0.793-1.963-0.801-2.398c0-8.678,2.072-9.847,2.072-9.847l0.254,0.001c0,0,0.016,11.14,0.014,11.603
		c0,0.175,0.002,0.896,0.002,1.765c0.148,0,0.306,0,0.436,0c2.125,0,3.238-1.771,3.238-2.937c0-0.583,0-4.174,0-7.613
		c0.195,0,0.371,0,0.492,0c0.541,0,1.242-3.193,1.894-3.571C28.979,9.444,32,9.55,32,9.55V8.306C32,8.306,28.925,7.98,28.005,8.306z
		"/>
	<path d="M10.204,12.53c0.006-0.121,0.016-0.195,0.016-0.195s-0.048,0.055-0.106,0.171c-0.06,0.115-0.133,0.282-0.196,0.49
		c-0.065,0.207-0.124,0.456-0.154,0.729c-0.032,0.274-0.042,0.571,0.015,0.883c0.032,0.159,0.078,0.296,0.134,0.438
		c0.059,0.136,0.121,0.264,0.188,0.384c0.137,0.238,0.283,0.447,0.423,0.614c0.139,0.168,0.271,0.296,0.374,0.375
		c0.102,0.083,0.18,0.101,0.18,0.097c-0.004,0.002-0.058-0.043-0.115-0.15c-0.062-0.106-0.139-0.267-0.227-0.455
		c-0.086-0.188-0.187-0.411-0.281-0.649c-0.049-0.117-0.095-0.239-0.132-0.366c-0.041-0.117-0.082-0.251-0.097-0.368
		c-0.077-0.503-0.043-1.067-0.039-1.482C10.194,12.83,10.2,12.654,10.204,12.53z"/>
</g>
</svg>
