<?xml version="1.0" encoding="iso-8859-1"?>
<!-- Generator: Adobe Illustrator 16.0.0, SVG Export Plug-In . SVG Version: 6.00 Build 0)  -->
<!DOCTYPE svg PUBLIC "-//W3C//DTD SVG 1.1//EN" "http://www.w3.org/Graphics/SVG/1.1/DTD/svg11.dtd">
<svg version="1.1" id="Layer_1" xmlns="http://www.w3.org/2000/svg" xmlns:xlink="http://www.w3.org/1999/xlink" x="0px" y="0px"
	 width="32px" height="31.881px" viewBox="0 0 32 31.881" style="enable-background:new 0 0 32 31.881;" xml:space="preserve">
<path d="M11.354,26.238c0.533-0.539,0.114-4.592,0.06-5.098l8.229-8.228l0.625,0.625l0.62-0.62c0,0,0.845-2.252,3.873-3.972
	c0.501-0.501,6.868-6.868,6.868-6.868l-0.002-0.002c0.007-0.006,0.014-0.009,0.02-0.015c0.471-0.472,0.471-1.236,0-1.707
	c-0.471-0.472-1.236-0.472-1.707,0c-0.006,0.006-0.01,0.012-0.016,0.018l-0.002-0.001c0,0-6.271,6.271-6.852,6.853
	c-2.379,3.367-4.049,3.829-4.049,3.829l-0.619,0.62l0.625,0.625l-8.205,8.205c0,0-4.574-0.515-5.149,0.054
	c-0.575,0.569-2.815,2.78-3.044,3.045c-0.23,0.264-3.781,3.595-2.245,5.131c0.438,0.438,1.229,1.229,1.384,1.383
	c0.017,0.018,0.027,0.029,0.027,0.029c0.152,0.151,0.928,0.927,1.383,1.383c1.451,1.451,4.868-2.015,5.133-2.244
	C8.574,29.052,10.785,26.813,11.354,26.238z M31.201,0.874c0.266,0.265,0.266,0.693,0.001,0.957
	c-0.265,0.266-1.38,0.951-1.644,0.687c-0.266-0.264,0.422-1.379,0.686-1.644C30.509,0.609,30.938,0.609,31.201,0.874z M0.855,27.575
	l-0.343-0.343l5.746-5.747l0.343,0.344L0.855,27.575z M1.713,28.69l-0.342-0.344l4.874-4.874l0.343,0.343L1.713,28.69z
	 M2.653,29.629l-0.343-0.344l4.202-4.202l0.343,0.343L2.653,29.629z M3.543,30.519l-0.344-0.343l4.875-4.875l0.344,0.344
	L3.543,30.519z M4.622,31.212l-0.343-0.344l5.746-5.746l0.343,0.344L4.622,31.212z"/>
<g>
</g>
<g>
</g>
<g>
</g>
<g>
</g>
<g>
</g>
<g>
</g>
<g>
</g>
<g>
</g>
<g>
</g>
<g>
</g>
<g>
</g>
<g>
</g>
<g>
</g>
<g>
</g>
<g>
</g>
</svg>
