<?xml version="1.0" encoding="utf-8"?>
<!-- Generator: Adobe Illustrator 16.0.0, SVG Export Plug-In . SVG Version: 6.00 Build 0)  -->
<!DOCTYPE svg PUBLIC "-//W3C//DTD SVG 1.1//EN" "http://www.w3.org/Graphics/SVG/1.1/DTD/svg11.dtd">
<svg version="1.1" id="Layer_1" xmlns="http://www.w3.org/2000/svg" xmlns:xlink="http://www.w3.org/1999/xlink" x="0px" y="0px"
	 width="32.445px" height="31.623px" viewBox="0 0 32.445 31.623" enable-background="new 0 0 32.445 31.623" xml:space="preserve">
<g>
	<g>
		<path d="M3.969,12.956h24.038c0.599,0,1.085-0.485,1.085-1.083c0-0.597-0.485-1.083-1.085-1.083H3.969
			c-0.601,0-1.086,0.486-1.086,1.083C2.883,12.471,3.369,12.956,3.969,12.956z"/>
		<path d="M29.366,16.399h-1.815v-2.827H4.425v2.827H2.61c-0.636,0-1.153,0.518-1.153,1.156c0,0.64,0.517,1.159,1.153,1.159h1.815
			v10.067c0,0-0.25,2.841,2.16,2.841H25.39c2.411,0,2.16-2.841,2.16-2.841V18.715h1.815c0.636,0,1.152-0.52,1.152-1.159
			C30.518,16.917,30.002,16.399,29.366,16.399z"/>
	</g>
	<path d="M13.304,8.837c-0.313-1.313-0.633-3.089,0.314-4.047c0.889-1.221,0.412-3.221-0.314-4.479
		c0.898,4.376-0.443,3.817-0.708,5.194C12.347,6.578,12.73,7.902,13.304,8.837z"/>
	<path d="M16.033,8.837c-1.153-4.708,1.195-3.217,0.743-6.385c-0.124-0.761-0.37-1.487-0.743-2.141
		c0.218,1.143,0.609,3.158-0.138,4.117C14.81,5.642,15.26,7.588,16.033,8.837z"/>
	<path d="M18.62,8.837c-1.144-4.775,1.219-3.237,0.741-6.385c-0.12-0.761-0.365-1.487-0.741-2.141
		c0.232,1.162,0.604,3.167-0.137,4.117C17.366,5.663,17.892,7.657,18.62,8.837z"/>
</g>
<g id="Capa_1">
</g>
</svg>
