<?xml version="1.0" encoding="iso-8859-1"?>
<!-- Generator: Adobe Illustrator 17.1.0, SVG Export Plug-In . SVG Version: 6.00 Build 0)  -->
<!DOCTYPE svg PUBLIC "-//W3C//DTD SVG 1.1//EN" "http://www.w3.org/Graphics/SVG/1.1/DTD/svg11.dtd">
<svg version="1.1" id="Layer_1" xmlns="http://www.w3.org/2000/svg" xmlns:xlink="http://www.w3.org/1999/xlink" x="0px" y="0px"
	 viewBox="0 0 150 150" style="enable-background:new 0 0 150 150;" xml:space="preserve">
<path d="M63.291,32.016c-0.977,0.141-1.898,0.286-2.763,0.438c0.86,0.518,1.676,1.048,2.447,1.589
	C63.08,33.354,63.185,32.679,63.291,32.016z"/>
<path d="M75,41.812c-1.31,0.019-2.58,0.061-3.806,0.129c1.798,2.421,3.005,4.732,3.806,6.682V41.812z"/>
<path d="M77.344,28.758c1.95,0.023,3.973,0.11,6.052,0.274c0.909,0.073,1.826,0.155,2.754,0.258c-0.614-3.157-1.242-6-1.838-8.508
	c-0.469-0.042-0.938-0.089-1.399-0.124c-1.91-0.145-3.773-0.234-5.569-0.255V28.758z"/>
<path d="M99.729,45.084c-3.054-0.902-6.066-1.58-9.005-2.084c0.368,2.871,0.696,5.859,0.961,8.958
	c3.241,0.401,6.455,0.968,9.574,1.744c-0.384-3.075-0.867-6.049-1.448-8.897L99.729,45.084z"/>
<path d="M69.968,13.071c-0.431,1.402-0.94,3.188-1.481,5.304c0.398-0.033,0.802-0.066,1.212-0.094
	c1.683-0.117,3.457-0.195,5.302-0.22v-7.418c-1.65,0.227-3.26,0.811-4.814,1.73C70.116,12.6,70.045,12.82,69.968,13.071z"/>
<path d="M66.014,18.614c0.356-1.425,0.698-2.702,1.02-3.841c-1.263,1.172-2.48,2.562-3.635,4.165
	C64.233,18.82,65.107,18.712,66.014,18.614z"/>
<path d="M57.295,30.687c0.002,0,0.002,0.002,0.005,0.002c1.786-0.375,3.94-0.762,6.401-1.092c0.558-3.178,1.148-6.047,1.727-8.55
	c-1.338,0.159-2.597,0.335-3.762,0.523C60.066,24.216,58.598,27.274,57.295,30.687z"/>
<path d="M102.286,70.657c-2.573-0.705-5.238-1.254-7.945-1.673c3.066,4.39,5.588,8.955,7.486,12.778
	C102.122,78.162,102.281,74.454,102.286,70.657z"/>
<path d="M84.954,13.814c0.375,1.369,0.795,2.96,1.242,4.779c1.186,0.131,2.388,0.298,3.605,0.485
	C88.28,16.95,86.655,15.185,84.954,13.814z"/>
<path d="M77.344,10.573v7.484c1.755,0.021,3.572,0.094,5.433,0.23c0.314,0.023,0.628,0.045,0.945,0.07
	c-0.438-1.744-0.846-3.279-1.202-4.559c-0.204-0.729-0.387-1.362-0.553-1.929C80.47,11.121,78.923,10.685,77.344,10.573z"/>
<path d="M77.344,39.457c2.142,0.026,4.371,0.124,6.668,0.321c1.303,0.112,2.632,0.26,3.975,0.438
	c-0.429-3.002-0.898-5.848-1.383-8.508c-1.041-0.124-2.058-0.213-3.073-0.298c-2.126-0.176-4.2-0.288-6.188-0.312V39.457z"/>
<path d="M86.78,21.035c0.591,2.538,1.207,5.412,1.809,8.559c2.384,0.333,4.826,0.783,7.303,1.359
	c-1.294-3.434-2.754-6.518-4.35-9.19C89.93,21.471,88.341,21.225,86.78,21.035z"/>
<path d="M99.321,42.537c-0.713-3.148-1.545-6.124-2.477-8.909c-2.648-0.673-5.25-1.193-7.795-1.575
	c0.478,2.667,0.933,5.524,1.352,8.517C93.309,41.044,96.293,41.688,99.321,42.537z"/>
<path d="M91.875,54.37c0.286,3.848,0.469,7.84,0.523,11.941c3.349,0.441,6.661,1.069,9.867,1.917
	c-0.066-4.13-0.309-8.149-0.717-12.023C98.419,55.388,95.17,54.785,91.875,54.37z"/>
<path d="M75,31.113c-2.102,0.03-4.099,0.127-5.981,0.274c-1.151,0.091-2.255,0.199-3.312,0.321c-0.209,1.261-0.41,2.576-0.602,3.933
	c1.312,1.064,2.496,2.149,3.527,3.239c0.26,0.277,0.492,0.551,0.736,0.825c1.784-0.131,3.666-0.218,5.632-0.246
	C75,39.459,75,31.113,75,31.113z"/>
<path d="M77.344,53.674c2.742,1.092,5.33,2.766,7.744,4.819c1.727,1.47,3.368,3.127,4.912,4.903c-0.091-3.178-0.26-6.284-0.49-9.298
	c-1.563-0.157-3.131-0.277-4.697-0.363c-2.512-0.141-5.013-0.195-7.472-0.183v0.122H77.344z"/>
<path d="M77.344,51.15c2.409-0.009,4.863,0.047,7.334,0.185c1.542,0.084,3.091,0.206,4.638,0.361
	c-0.277-3.129-0.609-6.152-0.989-9.042c-1.416-0.199-2.805-0.363-4.174-0.485c-2.344-0.211-4.627-0.34-6.806-0.366v9.347H77.344z"/>
<polygon points="70.191,8.745 70.193,8.745 70.193,8.742 "/>
<path d="M66.122,29.299c0.968-0.105,1.978-0.197,3.019-0.277c1.849-0.141,3.806-0.234,5.857-0.263v-8.346
	c-1.891,0.026-3.708,0.101-5.423,0.227c-0.577,0.042-1.13,0.094-1.683,0.145C67.305,23.264,66.698,26.095,66.122,29.299z"/>
<path d="M82.228,8.742L82.228,8.742L82.228,8.742z"/>
<path d="M73.823,90.436c-0.136,0.825-0.279,1.629-0.422,2.421c-0.916,5.016-1.98,9.352-3.138,13.055
	c0.416-1.331,1.467-2.689,2.103-3.941c0.686-1.352,1.295-2.725,1.949-4.089c5.213-10.874,7.975-22.913,8.025-34.971
	c0.005-1.117-0.021-2.27-0.479-3.289c-0.911-2.029-3.221-2.961-5.317-3.703C76.77,56,76.441,60.326,76.43,60.79
	c-0.036,1.547-0.085,3.09-0.153,4.636c-0.035,0.811-0.073,1.612-0.115,2.402c-0.225,4.254-0.534,8.198-0.916,11.876
	c-0.082,0.787-0.159,1.587-0.255,2.327c-0.342,2.344-0.736,5.766-1.167,8.363"/>
<path d="M56.498,32.878c-0.912-0.459-1.896-0.895-2.904-1.32c-0.218-0.091-0.408-0.195-0.63-0.284
	c-0.033,0.141-0.073,0.323-0.11,0.485c-0.157,0.687-0.349,1.556-0.572,2.599c-0.898,4.216-2.238,11.161-3.33,19.458
	c-0.105,0.809-0.211,1.624-0.312,2.456c-0.464,3.827-0.863,7.891-1.132,12.075c-0.052,0.804-0.094,1.615-0.136,2.426
	c-0.204,3.926-0.281,7.922-0.19,11.902c0.019,0.797,0.035,1.594,0.068,2.386c0.112,2.761,0.328,5.494,0.635,8.18
	c0.091,0.787,0.188,1.57,0.295,2.346c1.153,8.217,3.363,15.809,7.165,21.734c1.167,1.816,2.475,3.42,3.893,4.845
	c0.741-0.809,1.519-1.786,2.318-2.946c3.291-4.774,6.902-12.813,9.431-26.269c0.15-0.797,0.3-1.594,0.441-2.43
	c0.438-2.585,0.837-5.365,1.186-8.339c0.094-0.785,0.178-1.603,0.262-2.416c0.387-3.668,0.701-7.622,0.93-11.89
	c0.042-0.797,0.087-1.589,0.124-2.407c0.157-3.525,0.263-7.237,0.295-11.182c-0.012-0.101-0.047-0.333-0.117-0.687
	c-0.108-0.544-0.307-1.362-0.642-2.381c-0.748-2.28-2.215-5.548-5.013-8.977c-0.028-0.033-0.049-0.066-0.077-0.098
	c-0.595-0.722-1.233-1.448-1.952-2.177c-0.523-0.53-1.102-1.055-1.697-1.58c-0.352-0.309-0.731-0.614-1.109-0.919
	c-0.333-0.27-0.666-0.537-1.02-0.802c-1.631-1.228-3.492-2.409-5.609-3.511C56.824,33.063,56.674,32.967,56.498,32.878z"/>
<path d="M103.706,93.588c-0.019-0.907-0.063-1.629-0.113-2.093c-0.197-0.506-0.966-2.447-2.22-5.177
	c-0.27-0.586-0.555-1.2-0.87-1.852c-0.412-0.86-0.863-1.772-1.35-2.723c-1.786-3.492-4.066-7.509-6.75-11.367
	c-0.368-0.527-0.743-1.052-1.125-1.573c-0.063-0.087-0.127-0.176-0.19-0.262c-0.335-0.45-0.675-0.895-1.022-1.338
	c-0.335-0.429-0.677-0.853-1.024-1.273c-1.198-1.448-2.452-2.824-3.764-4.09c-0.234-0.227-0.471-0.448-0.71-0.668
	c0.075,1.484,0.084,2.958,0.059,4.42c-0.014,0.799-0.04,1.596-0.082,2.386c-0.22,4.052-0.797,8.002-1.629,11.798
	c-0.173,0.799-0.359,1.591-0.553,2.374c-0.713,2.852-1.554,5.606-2.482,8.236c-0.286,0.809-0.579,1.605-0.879,2.391
	c-0.537,1.399-1.09,2.761-1.659,4.078c-0.766,1.772-1.552,3.462-2.344,5.065c-4.798,9.705-9.71,16.13-10.378,16.983
	c-0.56,0.916-1.116,1.748-1.664,2.498c-0.666,0.907-1.32,1.704-1.952,2.393c2.716,2.266,5.824,3.902,9.309,4.889v1.216v1.191v9.534
	h11.719v-8.527v-1.195v-1.172c5.313-0.591,9.741-2.829,13.167-6.71c6.766-7.666,8.313-20.039,8.496-26.981
	C103.718,95.123,103.723,94.291,103.706,93.588z"/>
<path d="M95.438,20.149c0.525,0.877,1.01,1.809,1.437,2.789c0.33,0.759,0.635,1.54,0.879,2.355c0.384-0.584,0.729-1.209,1.052-1.849
	c0.356-0.703,0.682-1.43,0.973-2.177c2.684-6.872,2.745-15.077,2.745-15.077c-9.141,0.382-14.269,5.712-14.269,5.712
	S92.419,15.108,95.438,20.149z"/>
</svg>
