<?xml version="1.0" encoding="iso-8859-1"?>
<!-- Generator: Adobe Illustrator 16.0.0, SVG Export Plug-In . SVG Version: 6.00 Build 0)  -->
<!DOCTYPE svg PUBLIC "-//W3C//DTD SVG 1.1//EN" "http://www.w3.org/Graphics/SVG/1.1/DTD/svg11.dtd">
<svg version="1.1" id="Layer_1" xmlns="http://www.w3.org/2000/svg" xmlns:xlink="http://www.w3.org/1999/xlink" x="0px" y="0px"
	 width="22.909px" height="31.465px" viewBox="0 0 22.909 31.465" style="enable-background:new 0 0 22.909 31.465;"
	 xml:space="preserve">
<g>
	<path d="M6.493,8.664c0.125,0.233,0.211,0.299,0.321,0.457l0.281,0.341C7.148,9.576,7.233,9.665,7.271,9.79
		c0.092,0.237,0.192,0.487,0.223,0.763c0.091,0.538,0.084,1.102,0.061,1.595c-0.066,0.985-0.161,1.706-0.161,1.706
		s0.527-0.511,0.946-1.521c0.104-0.251,0.207-0.534,0.273-0.847c0.066-0.314,0.132-0.657,0.117-1.028
		c0-0.365-0.045-0.769-0.19-1.161c-0.059-0.2-0.18-0.385-0.274-0.579C8.211,8.624,8.138,8.54,8.074,8.451L7.973,8.32L7.922,8.257
		L7.91,8.24c0.005,0.008,0.016,0.018,0.035,0.041L7.94,8.272L7.922,8.249c-0.089-0.12-0.263-0.292-0.283-0.367
		c-0.04-0.089-0.101-0.161-0.141-0.297C7.402,7.352,7.329,7.084,7.29,6.811C7.208,6.265,7.219,5.7,7.241,5.206
		c0.065-0.989,0.151-1.711,0.151-1.711s-0.521,0.517-0.94,1.523c-0.21,0.502-0.395,1.129-0.404,1.865
		C6.057,7.247,6.063,7.646,6.215,8.04C6.263,8.23,6.376,8.451,6.493,8.664z"/>
	<path d="M9.597,5.166c0.127,0.236,0.211,0.302,0.321,0.46l0.281,0.339c0.054,0.112,0.138,0.205,0.175,0.329
		c0.092,0.235,0.192,0.486,0.223,0.761c0.091,0.54,0.084,1.104,0.061,1.596c-0.064,0.987-0.16,1.706-0.16,1.706
		s0.526-0.511,0.944-1.52c0.105-0.253,0.208-0.533,0.274-0.851c0.067-0.312,0.132-0.653,0.118-1.025
		c-0.001-0.363-0.044-0.77-0.191-1.161c-0.059-0.199-0.18-0.386-0.274-0.579c-0.055-0.094-0.127-0.178-0.192-0.268l-0.1-0.131
		l-0.052-0.063l-0.011-0.017c0.004,0.008,0.016,0.019,0.029,0.032l-0.019-0.022c-0.087-0.121-0.262-0.291-0.281-0.367
		c-0.041-0.088-0.102-0.16-0.142-0.298c-0.096-0.232-0.17-0.501-0.207-0.772c-0.081-0.548-0.071-1.111-0.049-1.606
		C10.41,0.72,10.497,0,10.497,0S9.975,0.516,9.556,1.521C9.348,2.021,9.161,2.65,9.151,3.386c0.01,0.362,0.016,0.764,0.166,1.159
		C9.367,4.735,9.479,4.955,9.597,5.166z"/>
	<path d="M13.433,8.338c0.125,0.234,0.21,0.301,0.319,0.458l0.281,0.339c0.053,0.113,0.137,0.204,0.175,0.33
		c0.093,0.236,0.192,0.486,0.223,0.761c0.091,0.54,0.084,1.104,0.061,1.595c-0.064,0.988-0.16,1.706-0.16,1.706
		s0.527-0.509,0.945-1.521c0.105-0.25,0.207-0.534,0.272-0.848c0.068-0.313,0.133-0.655,0.119-1.027
		c-0.001-0.364-0.044-0.768-0.191-1.16c-0.058-0.201-0.181-0.387-0.274-0.58c-0.055-0.093-0.127-0.176-0.19-0.266l-0.102-0.13
		L14.859,7.93l-0.012-0.017c0.007,0.007,0.016,0.019,0.034,0.042l-0.003-0.008l-0.02-0.026c-0.089-0.119-0.264-0.29-0.281-0.366
		c-0.043-0.087-0.102-0.161-0.143-0.298c-0.095-0.232-0.169-0.501-0.207-0.772c-0.082-0.547-0.071-1.112-0.049-1.606
		c0.063-0.987,0.151-1.708,0.151-1.708s-0.522,0.516-0.939,1.523c-0.21,0.502-0.396,1.128-0.404,1.863
		C12.994,6.92,13,7.321,13.151,7.714C13.201,7.904,13.313,8.126,13.433,8.338z"/>
	<path d="M17.094,24.707c0.102-0.161,0.197-0.344,0.288-0.539c0.532,0.292,1.143,0.459,1.791,0.459c2.06,0,3.736-1.677,3.736-3.736
		c0-2.062-1.677-3.737-3.736-3.737c-0.229,0-0.45,0.023-0.667,0.063c-0.042-1.145-0.221-1.938-0.531-1.938c-0.661,0-4.807,0-7.086,0
		c0,0-0.607,0-1.498,0c-2.28,0-6.426,0-7.087,0c-0.92,0-0.69,6.937,0.881,9.428c1.054,1.669,2.603,3.088,3.511,3.846
		c-3.31,0-6.025,0-6.499,0c-1.305,0,4.216,2.912,7.46,2.912s2.133,0,5.024,0s9.066-2.912,8.058-2.912c-0.399,0-3.487,0-7.156,0
		C14.492,27.795,16.04,26.376,17.094,24.707z M18.435,19.49c0.222-0.118,0.47-0.191,0.738-0.191c0.877,0,1.59,0.715,1.59,1.592
		s-0.713,1.59-1.59,1.59c-0.435,0-0.827-0.176-1.115-0.459C18.235,21.205,18.36,20.331,18.435,19.49z M6.791,26.053
		c-0.378-0.4-0.787-0.898-1.167-1.474c-0.393-0.568-0.733-1.225-1.044-1.896c-0.128-0.349-0.282-0.685-0.386-1.037
		c-0.114-0.348-0.208-0.695-0.273-1.04c-0.076-0.341-0.133-0.673-0.152-0.995c-0.025-0.321-0.062-0.614-0.039-0.905
		c0.008-0.574,0.073-1.022,0.158-1.332c0.072-0.313,0.126-0.491,0.126-0.491s0.056,0.178,0.131,0.49
		c0.035,0.155,0.078,0.344,0.127,0.561c0.063,0.208,0.136,0.438,0.196,0.687c0.054,0.246,0.174,0.516,0.248,0.799
		c0.076,0.284,0.206,0.573,0.304,0.878c0.091,0.308,0.245,0.607,0.354,0.925c0.107,0.319,0.267,0.627,0.397,0.943
		c0.131,0.317,0.276,0.63,0.417,0.939c0.163,0.298,0.274,0.618,0.429,0.905c0.288,0.592,0.557,1.145,0.787,1.618
		c0.47,0.952,0.776,1.63,0.776,1.63S7.539,26.862,6.791,26.053z"/>
</g>
<g>
</g>
<g>
</g>
<g>
</g>
<g>
</g>
<g>
</g>
<g>
</g>
<g>
</g>
<g>
</g>
<g>
</g>
<g>
</g>
<g>
</g>
<g>
</g>
<g>
</g>
<g>
</g>
<g>
</g>
</svg>
