<?xml version="1.0" encoding="iso-8859-1"?>
<!-- Generator: Adobe Illustrator 16.0.0, SVG Export Plug-In . SVG Version: 6.00 Build 0)  -->
<!DOCTYPE svg PUBLIC "-//W3C//DTD SVG 1.1//EN" "http://www.w3.org/Graphics/SVG/1.1/DTD/svg11.dtd">
<svg version="1.1" id="Layer_1" xmlns="http://www.w3.org/2000/svg" xmlns:xlink="http://www.w3.org/1999/xlink" x="0px" y="0px"
	 width="23.719px" height="31.395px" viewBox="0 0 23.719 31.395" style="enable-background:new 0 0 23.719 31.395;"
	 xml:space="preserve">
<g>
	<polygon points="14.973,20.822 13.951,25.907 14.333,25.897 15.374,20.853 	"/>
	<polygon points="12.902,25.873 13.27,25.873 13.552,20.879 13.164,20.853 	"/>
	<polygon points="11.475,20.845 11.809,25.883 12.196,25.859 11.862,20.822 	"/>
	<polygon points="7.62,20.834 9.486,25.9 9.924,25.871 8.046,20.828 	"/>
	<polygon points="9.676,20.863 10.635,25.873 11.068,25.873 10.07,20.853 	"/>
	<path d="M1.025,4.408v-2.86l0.438-0.525h21.563V0H0.984L0.002,1.179v3.229H0v26.986h23.719V4.408H1.025z M15.925,26.27H8.932
		l-2.816-6.022h0.478c-0.259-1.092,0.45-1.67,1.489-1.966c-0.031-0.403,0.1-0.815,0.418-1.082c0.349-0.291,0.763-0.474,1.205-0.592
		c0.069-0.601,0.598-1.134,1.223-1.105c0.177,0.008,0.354,0.019,0.53,0.027c-0.064-0.254-0.071-0.543,0.003-0.877
		c0.291-1.344,2.102-1.032,2.37,0.077c0.068,0.039,0.138,0.075,0.206,0.112c0.16,0.082,0.321,0.163,0.48,0.246
		c0.32,0.165,0.486,0.444,0.553,0.757c0.343,0.09,0.646,0.236,0.843,0.475c0.255,0.313,0.358,0.684,0.325,1.032
		c0.838,0.234,1.607,0.754,1.236,1.777c-0.014,0.042-0.033,0.077-0.049,0.113c0.533,0.104,0.813,0.534,0.871,1.005h0.445
		L15.925,26.27z M20.186,9.686H4.67V8.164h15.516V9.686z"/>
	<polygon points="14.941,25.873 15.366,25.901 17.188,20.853 16.773,20.828 	"/>
</g>
<g>
</g>
<g>
</g>
<g>
</g>
<g>
</g>
<g>
</g>
<g>
</g>
<g>
</g>
<g>
</g>
<g>
</g>
<g>
</g>
<g>
</g>
<g>
</g>
<g>
</g>
<g>
</g>
<g>
</g>
</svg>
