<?xml version="1.0" encoding="utf-8"?>
<!-- Generator: Adobe Illustrator 16.0.0, SVG Export Plug-In . SVG Version: 6.00 Build 0)  -->
<!DOCTYPE svg PUBLIC "-//W3C//DTD SVG 1.1//EN" "http://www.w3.org/Graphics/SVG/1.1/DTD/svg11.dtd">
<svg version="1.1" id="Layer_1" xmlns="http://www.w3.org/2000/svg" xmlns:xlink="http://www.w3.org/1999/xlink" x="0px" y="0px"
	 width="64px" height="64px" viewBox="0 0 64 64" enable-background="new 0 0 64 64" xml:space="preserve">
<g>
	<path fill="none" d="M22.417,14.069h3.414l1.16,0.86l0.368,0.028l0.871-0.88l0.961,0.032l1.278,0.19l0.805,0.407l8.608,0.444
		l2.36,0.999l-0.333,0.283l-1.75-0.283l-0.027,0.338l0.639,0.44l-0.833,0.167v0.5l-1.721,0.112l1.304,1.221l0.223,1l-0.584,0.305
		l-1.832-1.499V18.04l0.445-0.694l-0.333-0.417l-2,1.333l-1.582-0.139l-0.528-0.388l-0.666,0.944l0.306,0.611l2.304,0.277
		l0.925,1.056l-0.231,0.306l-0.721-0.723l-0.333,0.36l0.564,0.744l-0.121,1.398l-1.48-0.002l-0.074,1.129l1.25,0.758l0.435,0.574
		l-0.657,0.176l-2.332-1.777h-0.75l0.028,1.444l1.693,1.776l0.129,1.288l-0.852,0.711l-1.942,0.695l0.193,0.722l-0.353,0.25
		l-0.396-0.61l0.056-0.472l-0.694-0.222l-0.39,0.527l0.055,1l1.369,1.102l0.138,0.833l-0.829,0.552l-0.63-0.066l-1.13-1.281
		l-0.222,0.889l2.138,3.055L29.969,36.2l-2.638-2.526v-2.555l-1.998-1.776L23.74,29.19l-0.903,0.336l-0.56,1.204l-0.298,2.235
		l-0.541,0.785l-0.542-0.125l-1.679-2.763l0.098-1.02v-0.75l-0.767-0.482l-3.277-0.536L13.76,28l-1.322-0.759l-0.093-0.797h-0.629
		c0,0-0.018,1.094-0.018,1.153c0,0.059,2.851,1.403,2.851,1.403l0.813,0.106l0.014,0.611l-0.763,0.5l-2.435,1.763l-1.166,0.075
		l-0.573-0.575l-0.061-0.931l-0.585-0.711c-0.052,0.537-0.08,1.08-0.093,1.627l0.524,0.988l0.612,0.305l2.378-0.5l0.444,0.205
		l-2.289,3.273l-1.15,1.098c2.215,9.987,11.136,17.48,21.78,17.48c12.303,0,22.313-10.009,22.313-22.313S44.303,9.688,32,9.688
		c-4.396,0-8.496,1.283-11.954,3.487l0.787-0.05L22.417,14.069z M22.676,34.164l-0.842,0.314l-0.232-0.629l0.488-0.689l0.679,0.134
		L22.676,34.164z M35.576,38.922l0.044-0.257l0.507-0.075l0.042,0.393l-0.312-0.035v0.229h-0.444v0.195h-0.431v-0.389h0.028
		L35.576,38.922z M35.231,38.737l-0.292-0.091v-0.201h0.375L35.231,38.737z M35.072,36.14l0.013,1.803L34.68,37.98v-0.611
		l-0.39-0.139l0.074,0.862h-0.5v-1.352h0.242l-0.013-0.219L35.072,36.14z M34.752,38.525v0.211l-0.201,0.031v0.216h-0.278v0.173
		l-0.41,0.042v-0.216l0.264-0.247l0.18-0.211H34.752z M30.782,35.502l1.937-1.05l0.257-0.229l0.215-0.578h0.334l0.111,0.57
		l0.229,0.096v1.829l-0.229,0.15v0.243l-0.368,0.333l-0.208,0.528h-1.631l-0.646-0.855V35.502z M33.635,38.737v0.247H33.19v-0.247
		H33.635z M29.118,38.181h0.518v-0.185l-0.389-0.13l-2.721-3.332l0.464-0.37l1.908,1.719l-0.022,0.28l0.407,0.537l1.481-0.018
		l0.056,0.685l-0.537,0.056l-0.222-0.093l0.056,0.741l1.371-0.037l1.109,0.704l-3.351-0.146L29.118,38.181z M39.414,49.376
		l-0.779,0.429l-0.965-0.105l0.908-1.003l0.851,0.093L39.414,49.376z M45.052,48.11l0.647-0.443l0.093-1.417l0.737-0.044
		l0.012,0.907l0.402-0.08l0.274,0.487l-0.743,0.421l-0.738,0.327l-0.692,0.454l-2.443,1.499l-1.007,0.154v-0.458l0.329-0.269
		l1.925-1.37L45.052,48.11z M43.317,44.34l-0.648,1.478l-2.627,2.471l-2.728-0.094l-0.889-1.955l-2.401,0.096l-2.962,1.018v-0.538
		l0.611-0.593l0.075-3.035l1.018-0.703l0.913-0.011l1.721-1.961l1.087-0.083v0.407h0.37l0.908-1.288h1.263l1.075,0.646l-0.504,0.493
		l-0.6-0.123l0.04,0.812l0.315,0.19l1.131,0.084l0.241-2.045l0.592,0.028l0.658,1.127l0.075,1.63l0.997,0.854L43.317,44.34z
		 M42.521,38.939h0.5v0.427h-1v-1.056l-0.574,0.056l-0.538,0.573l-1.481,0.094l-0.019-0.686h0.445l-0.019-0.334l-0.686-0.36
		l-1.221-0.176l-0.565-0.694l0.842-0.842l0.592,0.352l-0.046,0.646l0.62-0.016l0.668-0.352l2.387,1.083L42.521,38.939z"/>
	<path fill="none" d="M11.912,23.759l-0.483,0.417l-0.065,0.296l0.917,0.065l0.112,0.175l0.583,0.047l0.251-0.24v-0.389
		l-0.492-0.361v-0.555l-0.954-0.636c-0.085,0.183-0.169,0.367-0.25,0.552l0.38,0.278V23.759z"/>
	<path fill="none" d="M12.55,22.094l-0.028-0.445l-0.229-0.096c-0.09,0.169-0.177,0.34-0.263,0.511L12.55,22.094z"/>
	<polygon points="31.489,38.033 30.118,38.07 30.063,37.329 30.285,37.422 30.821,37.367 30.766,36.682 29.285,36.7 28.877,36.164 
		28.899,35.883 26.991,34.164 26.527,34.534 29.248,37.866 29.636,37.996 29.636,38.181 29.118,38.181 29.248,38.591 32.598,38.737 
			"/>
	<polygon points="33.059,37.395 33.267,36.867 33.635,36.533 33.635,36.29 33.864,36.14 33.864,34.311 33.635,34.215 33.524,33.645 
		33.19,33.645 32.976,34.223 32.719,34.452 30.782,35.502 30.782,36.54 31.428,37.395 	"/>
	<polygon points="33.864,36.739 33.864,38.091 34.364,38.091 34.29,37.229 34.68,37.369 34.68,37.98 35.085,37.943 35.072,36.14 
		34.093,36.52 34.106,36.739 	"/>
	<polygon points="41.976,40.762 41.318,39.635 40.726,39.607 40.485,41.652 39.354,41.568 39.038,41.377 38.998,40.566 
		39.598,40.688 40.102,40.195 39.027,39.549 37.764,39.549 36.856,40.837 36.486,40.837 36.486,40.431 35.399,40.513 33.678,42.475 
		32.765,42.486 31.747,43.189 31.672,46.224 31.062,46.817 31.062,47.354 34.024,46.336 36.425,46.24 37.314,48.195 40.042,48.29 
		42.669,45.818 43.317,44.34 43.048,43.247 42.051,42.393 	"/>
	<polygon points="37.67,49.699 38.635,49.805 39.414,49.376 39.429,48.789 38.578,48.696 	"/>
	<polygon points="41.595,49.916 41.595,50.374 42.602,50.22 45.045,48.721 45.737,48.267 46.475,47.94 47.218,47.52 46.944,47.032 
		46.542,47.112 46.53,46.206 45.793,46.25 45.7,47.667 45.052,48.11 43.849,48.277 41.923,49.647 	"/>
	<polygon points="39.374,36.923 38.753,36.939 38.8,36.293 38.208,35.941 37.366,36.784 37.931,37.478 39.151,37.654 39.837,38.014 
		39.855,38.348 39.411,38.348 39.429,39.033 40.91,38.939 41.448,38.366 42.021,38.311 42.021,39.366 43.021,39.366 43.021,38.939 
		42.521,38.939 42.428,37.654 40.042,36.571 	"/>
	<polygon points="21.602,33.849 21.833,34.478 22.676,34.164 22.769,33.294 22.09,33.16 	"/>
	<polygon points="34.94,38.646 35.231,38.737 35.314,38.445 34.94,38.445 	"/>
	<rect x="33.19" y="38.737" width="0.445" height="0.247"/>
	<polygon points="34.128,38.737 33.864,38.984 33.864,39.2 34.274,39.157 34.274,38.984 34.552,38.984 34.552,38.768 34.752,38.737 
		34.752,38.525 34.308,38.525 	"/>
	<polygon points="34.981,38.984 34.981,39.373 35.413,39.373 35.413,39.178 35.856,39.178 35.856,38.949 36.168,38.984 
		36.127,38.591 35.62,38.666 35.576,38.922 35.01,38.984 	"/>
	<path d="M32,7.688c-6.486,0-12.382,2.559-16.746,6.713l-0.002,0.001v0.001c-0.276,0.263-0.547,0.532-0.811,0.807
		c-3.246,3.393-5.519,7.719-6.373,12.532c-0.028,0.161-0.061,0.321-0.086,0.483C7.789,29.456,7.688,30.716,7.688,32
		c0,3.301,0.664,6.449,1.861,9.322C13.213,50.114,21.895,56.313,32,56.313c13.406,0,24.313-10.907,24.313-24.313
		S45.406,7.688,32,7.688z M12.292,21.553l0.229,0.096l0.028,0.445l-0.52-0.029C12.116,21.893,12.202,21.722,12.292,21.553z
		 M11.429,24.176l0.483-0.417v-0.351l-0.38-0.278c0.081-0.186,0.164-0.369,0.25-0.552l0.954,0.636v0.555l0.492,0.361v0.389
		l-0.251,0.24l-0.583-0.047l-0.112-0.175l-0.917-0.065L11.429,24.176z M32,54.313c-10.644,0-19.565-7.494-21.78-17.48l1.15-1.098
		l2.289-3.273l-0.444-0.205l-2.378,0.5l-0.612-0.305l-0.524-0.988c0.013-0.547,0.041-1.09,0.093-1.627l0.585,0.711l0.061,0.931
		l0.573,0.575l1.166-0.075l2.435-1.763l0.763-0.5l-0.014-0.611L14.55,29c0,0-2.851-1.344-2.851-1.403
		c0-0.06,0.018-1.153,0.018-1.153h0.629l0.093,0.797L13.76,28l1.51,0.074l3.277,0.536l0.767,0.482v0.75l-0.098,1.02l1.679,2.763
		l0.542,0.125l0.541-0.785l0.298-2.235l0.56-1.204l0.903-0.336l1.593,0.152l1.998,1.776v2.555l2.638,2.526l0.139-0.443l-2.138-3.055
		l0.222-0.889l1.13,1.281l0.63,0.066l0.829-0.552l-0.138-0.833l-1.369-1.102l-0.055-1l0.39-0.527l0.694,0.222l-0.056,0.472
		l0.396,0.61l0.353-0.25l-0.193-0.722l1.942-0.695l0.852-0.711l-0.129-1.288l-1.693-1.776l-0.028-1.444h0.75l2.332,1.777
		l0.657-0.176l-0.435-0.574l-1.25-0.758l0.074-1.129l1.48,0.002l0.121-1.398l-0.564-0.744l0.333-0.36l0.721,0.723l0.231-0.306
		l-0.925-1.056l-2.304-0.277l-0.306-0.611l0.666-0.944l0.528,0.388l1.582,0.139l2-1.333l0.333,0.417l-0.445,0.694v0.694l1.832,1.499
		l0.584-0.305l-0.223-1l-1.304-1.221l1.721-0.112v-0.5l0.833-0.167l-0.639-0.44l0.027-0.338l1.75,0.283l0.333-0.283l-2.36-0.999
		l-8.608-0.444l-0.805-0.407l-1.278-0.19l-0.961-0.032l-0.871,0.88l-0.368-0.028l-1.16-0.86h-3.414l-1.584-0.945l-0.787,0.05
		C23.504,10.971,27.604,9.688,32,9.688c12.303,0,22.313,10.009,22.313,22.313S44.303,54.313,32,54.313z"/>
</g>
</svg>
