<?xml version="1.0" encoding="iso-8859-1"?>
<!-- Generator: Adobe Illustrator 16.0.0, SVG Export Plug-In . SVG Version: 6.00 Build 0)  -->
<!DOCTYPE svg PUBLIC "-//W3C//DTD SVG 1.1//EN" "http://www.w3.org/Graphics/SVG/1.1/DTD/svg11.dtd">
<svg version="1.1" id="Layer_1" xmlns="http://www.w3.org/2000/svg" xmlns:xlink="http://www.w3.org/1999/xlink" x="0px" y="0px"
	 width="23.719px" height="31.395px" viewBox="0 0 23.719 31.395" style="enable-background:new 0 0 23.719 31.395;"
	 xml:space="preserve">
<g>
	<path d="M1.026,4.408V1.549l0.438-0.526h21.563V0H0.985L0.003,1.179v3.229H0v26.986h23.719V4.408H1.026z M20.586,22.117
		c0,0-1.23-0.043-1.494,0.11c-0.265,0.154-0.551,1.453-0.771,1.453c-0.027,0-0.063,0-0.101,0c-0.054,1.415-0.247,2.988-0.793,3.486
		h0.546v0.806H6.711v-0.806h0.661c-0.533-0.485-0.728-1.987-0.788-3.374c-0.009,0-0.022,0-0.031,0c-0.22,0-0.505-1.299-0.771-1.452
		c-0.264-0.154-1.492-0.111-1.492-0.111v-0.506c0,0,1.25-0.132,1.625,0c0.204,0.072,0.457,0.292,0.647,0.479
		c0.007-0.511,0.024-0.867,0.029-0.967H6.104v-0.61h12.535v0.61h-0.431c0.004,0.098,0.021,0.438,0.028,0.931
		c0.195-0.198,0.493-0.473,0.726-0.555c0.373-0.132,1.625,0,1.625,0V22.117z M10.121,15.649c0.022,0.159,0.066,0.315,0.122,0.453
		c0.023,0.079,0.059,0.122,0.083,0.174c0.011,0.045,0.113,0.145,0.165,0.215l0.011,0.016l0.002,0.003
		c-0.011-0.013-0.017-0.019-0.021-0.023l0.007,0.01l0.03,0.038l0.059,0.076c0.038,0.052,0.081,0.102,0.112,0.156
		c0.055,0.113,0.127,0.222,0.161,0.34c0.086,0.229,0.112,0.466,0.112,0.68c0.009,0.218-0.03,0.419-0.069,0.602
		c-0.039,0.185-0.098,0.35-0.16,0.497c-0.245,0.593-0.554,0.892-0.554,0.892s0.056-0.422,0.094-1
		c0.013-0.288,0.018-0.619-0.036-0.936c-0.018-0.16-0.077-0.308-0.131-0.445c-0.021-0.073-0.071-0.127-0.102-0.193l-0.165-0.198
		c-0.064-0.093-0.114-0.132-0.187-0.269c-0.07-0.125-0.136-0.254-0.165-0.365c-0.088-0.23-0.092-0.466-0.097-0.679
		c0.005-0.431,0.114-0.799,0.237-1.093c0.245-0.59,0.551-0.893,0.551-0.893s-0.051,0.423-0.088,1.002
		C10.079,14.998,10.073,15.329,10.121,15.649z M11.94,13.601c0.022,0.159,0.065,0.315,0.122,0.453
		c0.023,0.079,0.059,0.122,0.083,0.174c0.011,0.045,0.114,0.145,0.165,0.215l0.011,0.015l0.002,0.004
		c-0.011-0.013-0.017-0.02-0.021-0.023l0.007,0.009l0.03,0.038l0.059,0.076c0.038,0.053,0.08,0.102,0.112,0.157
		c0.055,0.113,0.127,0.222,0.161,0.339c0.086,0.23,0.111,0.467,0.112,0.681c0.009,0.218-0.03,0.418-0.069,0.602
		c-0.039,0.185-0.099,0.35-0.16,0.497C12.309,17.428,12,17.727,12,17.727s0.056-0.422,0.094-0.999
		c0.013-0.289,0.018-0.619-0.036-0.936c-0.018-0.161-0.077-0.308-0.131-0.445c-0.021-0.073-0.071-0.127-0.102-0.193l-0.166-0.199
		c-0.064-0.093-0.113-0.131-0.187-0.269c-0.069-0.124-0.136-0.253-0.164-0.365c-0.088-0.23-0.092-0.465-0.097-0.679
		c0.005-0.431,0.114-0.798,0.237-1.092C11.694,11.959,12,11.657,12,11.657s-0.051,0.423-0.088,1.001
		C11.898,12.948,11.892,13.279,11.94,13.601z M14.187,15.458c0.022,0.159,0.066,0.315,0.122,0.453
		c0.023,0.08,0.059,0.122,0.083,0.174c0.011,0.045,0.113,0.145,0.165,0.215l0.01,0.014c0.001,0.002,0.001,0.002,0.004,0.005
		l-0.003-0.003l-0.001-0.002c-0.008-0.008-0.014-0.015-0.017-0.019l0.007,0.01l0.03,0.038l0.059,0.076
		c0.038,0.052,0.08,0.102,0.112,0.156c0.055,0.113,0.127,0.222,0.161,0.34c0.086,0.229,0.111,0.467,0.112,0.68
		c0.008,0.218-0.03,0.419-0.069,0.602c-0.039,0.185-0.099,0.35-0.16,0.497c-0.246,0.593-0.554,0.892-0.554,0.892
		s0.056-0.422,0.094-1c0.014-0.288,0.018-0.619-0.035-0.936c-0.018-0.16-0.077-0.308-0.131-0.445
		c-0.022-0.073-0.071-0.127-0.102-0.193l-0.166-0.198c-0.064-0.093-0.114-0.132-0.187-0.269c-0.069-0.125-0.136-0.254-0.165-0.365
		c-0.088-0.23-0.091-0.466-0.096-0.679c0.005-0.431,0.114-0.799,0.236-1.093c0.245-0.59,0.551-0.893,0.551-0.893
		s-0.051,0.423-0.089,1.002C14.145,14.807,14.139,15.138,14.187,15.458z M21.39,9.371H3.184V7.586H21.39V9.371z"/>
	<path d="M8.427,25.166c-0.044-0.31-0.094-0.601-0.137-0.947c-0.021-0.18-0.056-0.321-0.062-0.486
		c-0.013-0.161-0.025-0.321-0.047-0.476c-0.043-0.313-0.059-0.601-0.081-0.854c-0.033-0.255-0.033-0.459-0.047-0.611
		c-0.015-0.151-0.013-0.239-0.013-0.239s-0.174,0.309-0.279,0.825c-0.024,0.129-0.052,0.268-0.081,0.415
		c-0.034,0.149-0.027,0.305-0.045,0.467c-0.013,0.162-0.019,0.33-0.023,0.503c-0.009,0.17-0.008,0.364,0.008,0.523
		c0.013,0.166,0.017,0.337,0.06,0.514c0.037,0.172,0.06,0.349,0.114,0.503C7.883,25.619,8,25.904,8.119,26.139
		c0.237,0.474,0.498,0.731,0.498,0.731s-0.014-0.363-0.076-0.863C8.507,25.761,8.469,25.473,8.427,25.166z"/>
</g>
<g>
</g>
<g>
</g>
<g>
</g>
<g>
</g>
<g>
</g>
<g>
</g>
<g>
</g>
<g>
</g>
<g>
</g>
<g>
</g>
<g>
</g>
<g>
</g>
<g>
</g>
<g>
</g>
<g>
</g>
</svg>
