<?xml version="1.0" encoding="iso-8859-1"?>
<!-- Generator: Adobe Illustrator 16.0.4, SVG Export Plug-In . SVG Version: 6.00 Build 0)  -->
<!DOCTYPE svg PUBLIC "-//W3C//DTD SVG 1.1//EN" "http://www.w3.org/Graphics/SVG/1.1/DTD/svg11.dtd">
<svg version="1.1" id="Capa_1" xmlns="http://www.w3.org/2000/svg" xmlns:xlink="http://www.w3.org/1999/xlink" x="0px" y="0px"
	 width="12.18px" height="15px" viewBox="0 0 12.18 15" style="enable-background:new 0 0 12.18 15;" xml:space="preserve">
<path style="fill:#010002;" d="M4.351,12.174c0,0.84-0.682,1.521-1.523,1.521s-1.522-0.682-1.522-1.521
	c0-0.606,0.357-1.125,0.87-1.371V4.524h1.305v6.278C3.993,11.049,4.351,11.567,4.351,12.174z M6.525,4.779h5.654V3.908H6.525V4.779z
	 M9.786,7.171V1.517H8.917v5.654H9.786z M5.654,12.174C5.654,13.731,4.387,15,2.827,15C1.269,15,0,13.731,0,12.174
	c0-0.958,0.497-1.857,1.304-2.376l0.001-8.281C1.309,0.68,1.989,0,2.827,0c0.837,0,1.52,0.68,1.523,1.517c0,0.003,0,0.005,0,0.006
	v8.274C5.156,10.316,5.654,11.216,5.654,12.174z M5.22,12.174c0-0.847-0.459-1.639-1.197-2.066l-0.108-0.062V1.522
	c0-0.6-0.487-1.087-1.087-1.087c-0.601,0-1.088,0.487-1.088,1.087l0,0v8.522l-0.108,0.062c-0.737,0.429-1.196,1.22-1.196,2.066
	c0,1.318,1.074,2.392,2.393,2.392C4.146,14.565,5.22,13.492,5.22,12.174z"/>
<g>
</g>
<g>
</g>
<g>
</g>
<g>
</g>
<g>
</g>
<g>
</g>
<g>
</g>
<g>
</g>
<g>
</g>
<g>
</g>
<g>
</g>
<g>
</g>
<g>
</g>
<g>
</g>
<g>
</g>
</svg>
