<?xml version="1.0" encoding="iso-8859-1"?>
<!-- Generator: Adobe Illustrator 16.0.0, SVG Export Plug-In . SVG Version: 6.00 Build 0)  -->
<!DOCTYPE svg PUBLIC "-//W3C//DTD SVG 1.1//EN" "http://www.w3.org/Graphics/SVG/1.1/DTD/svg11.dtd">
<svg version="1.1" id="Layer_1" xmlns="http://www.w3.org/2000/svg" xmlns:xlink="http://www.w3.org/1999/xlink" x="0px" y="0px"
	 width="34.78px" height="32px" viewBox="0 0 34.78 32" style="enable-background:new 0 0 34.78 32;" xml:space="preserve">
<g>
	<path d="M23.72,23.279c-0.275,0.112-0.577,0.056-0.923-0.175c-1.669-1.112-2.648-4.126-2.879-4.907l-0.117-3.724
		c0,0-3.636-0.137-3.624-8.937l0.021-0.002c-0.002-0.02-0.009-0.078-0.021-0.166c0.001-0.021,0-0.041,0.001-0.062
		c-0.003,0-0.007,0-0.01,0C16.02,4.257,15.267,0,12.878,0c-0.004,0-0.009,0-0.013,0c-2.488,0.017-3.203,4.623-3.311,5.44
		c-0.004,0-0.009,0-0.014,0c0.001,0.036,0,0.072,0.001,0.108C9.541,5.551,9.541,5.557,9.54,5.559h0.002
		c0.042,8.909-3.607,8.915-3.607,8.915L5.81,18.395c-0.311,0.999-1.265,3.674-2.818,4.71c-0.347,0.23-0.648,0.287-0.923,0.175
		c-0.792-0.326-1.278-1.93-1.398-2.52L0,20.896c0.052,0.254,0.539,2.491,1.808,3.015c0.178,0.073,0.359,0.11,0.545,0.11
		c0.33,0,0.67-0.116,1.018-0.348c1.055-0.704,1.842-2.016,2.373-3.181l-0.34,10.75l7.417,0.749V32l0.047-0.004L12.915,32v-0.009
		l7.416-0.749l-0.344-10.878c0.531,1.196,1.337,2.579,2.431,3.309c0.348,0.231,0.688,0.348,1.018,0.348
		c0.186,0,0.367-0.037,0.545-0.11c1.269-0.523,1.756-2.761,1.807-3.015l-0.669-0.136C24.998,21.35,24.512,22.953,23.72,23.279z
		 M12.915,5.596c0,0-0.035,0-0.095,0c-0.314,0-1.578-0.098-2.579-0.139c0.197-1.479,0.979-4.764,2.629-4.773
		c0.002,0,0.005,0,0.007,0c1.606,0,2.39,3.137,2.607,4.655C14.486,5.413,13.229,5.596,12.915,5.596z"/>
	<path d="M31.641,0.815C26.734-0.082,26.84,6.46,26.84,6.46s-0.687-3.745-2.479-3.218c-1.794,0.527-0.074,4.853,0,6.489
		c0.043,0.946,0.141,3.139,0.217,4.823c-0.808-0.196-2.261-0.396-3.354,0.306c-0.369,0.237-0.398,0.474-0.357,0.631
		c0.172,0.658,2.294,0.932,3.801,1.043c0.006,0.134,0.009,0.214,0.009,0.214h8.125c0,0,0.668-7.167,1.108-8.6
		C34.351,6.716,36.547,1.711,31.641,0.815z M21.326,15.396c0,0,0.019-0.05,0.155-0.138c0.998-0.642,2.422-0.389,3.118-0.206
		c0.018,0.387,0.033,0.728,0.046,1.003C22.925,15.918,21.454,15.621,21.326,15.396z"/>
</g>
<g>
</g>
<g>
</g>
<g>
</g>
<g>
</g>
<g>
</g>
<g>
</g>
<g>
</g>
<g>
</g>
<g>
</g>
<g>
</g>
<g>
</g>
<g>
</g>
<g>
</g>
<g>
</g>
<g>
</g>
</svg>
