<?xml version="1.0" encoding="iso-8859-1"?>
<!-- Generator: Adobe Illustrator 16.0.0, SVG Export Plug-In . SVG Version: 6.00 Build 0)  -->
<!DOCTYPE svg PUBLIC "-//W3C//DTD SVG 1.1//EN" "http://www.w3.org/Graphics/SVG/1.1/DTD/svg11.dtd">
<svg version="1.1" xmlns="http://www.w3.org/2000/svg" xmlns:xlink="http://www.w3.org/1999/xlink" x="0px" y="0px"
	 width="39.462px" height="33.592px" viewBox="0 0 39.462 33.592" style="enable-background:new 0 0 39.462 33.592;"
	 xml:space="preserve">
<g id="b184_oven">
	<path d="M0,0v32.416h3.759v1.176h3.641v-1.176h24.664v1.176h3.641v-1.176h3.758V0H0z M28.539,2.826
		c1.298,0,2.346,1.047,2.346,2.346c0,1.295-1.048,2.344-2.346,2.344c-1.295,0-2.344-1.049-2.344-2.344
		C26.195,3.873,27.244,2.826,28.539,2.826z M22.434,2.826c1.296,0,2.346,1.047,2.346,2.346c0,1.295-1.05,2.344-2.346,2.344
		c-1.297,0-2.346-1.049-2.346-2.344C20.088,3.873,21.137,2.826,22.434,2.826z M15.854,3.057h1.763v4.58h-1.763V3.057z M12.333,3.057
		h1.761v4.58h-1.761V3.057z M2.584,2.938h7.518v4.23H2.584V2.938z M36.466,31.01H2.467V9.514h33.999V31.01z M34.996,7.516
		c-1.295,0-2.346-1.049-2.346-2.344c0-1.299,1.051-2.346,2.346-2.346s2.345,1.047,2.345,2.346
		C37.341,6.467,36.291,7.516,34.996,7.516z"/>
	<path d="M30.87,23.969h-0.86v1.598h-1.176c-0.107-1.396-0.421-2.99-0.605-4.381c-0.452-3.438,1.288-2.084,1.288-2.084
		s0.264,0.223,1.438,1.033c1.816,1.566,1.01-1.666-0.605-3.801c-1.613-2.133-2.02-2.607-2.221-0.49
		c-0.201,2.119-2.771,2.572-2.771,2.572s-0.451,0.174-2.879,0.686c-3.633,0.436-3.531,4.607-3.531,4.607
		c-2.323-1.414,1.012-4.357,1.012-4.357c-5.176,0-7.661,3.412-8.832,6.215H9.341v-0.91H8.479v5.734H30.87V23.969z"/>
	<path d="M17.855,17.367c-0.186-0.42-0.248-0.814-0.18-1.133s0.238-0.604,0.482-0.879c0.291-0.336,0.591-0.844,0.546-1.398
		c-0.034-0.555-0.409-1.002-0.849-1.141c0.203,0.416,0.257,0.805,0.177,1.109c-0.087,0.314-0.264,0.578-0.53,0.873
		c-0.307,0.367-0.564,0.883-0.496,1.43C17.062,16.771,17.422,17.205,17.855,17.367z"/>
	<path d="M20.055,17.854c-0.102-0.344-0.107-0.625-0.043-0.834c0.069-0.203,0.182-0.381,0.354-0.572
		c0.216-0.254,0.454-0.662,0.402-1.098c-0.038-0.441-0.358-0.779-0.714-0.846c0.119,0.342,0.115,0.619,0.043,0.812
		c-0.082,0.199-0.194,0.361-0.388,0.572c-0.235,0.281-0.438,0.695-0.366,1.129C19.401,17.443,19.704,17.766,20.055,17.854z"/>
</g>
<g id="Capa_1">
</g>
</svg>
