<?xml version="1.0" encoding="utf-8"?>
<!-- Generator: Adobe Illustrator 16.0.0, SVG Export Plug-In . SVG Version: 6.00 Build 0)  -->
<!DOCTYPE svg PUBLIC "-//W3C//DTD SVG 1.1//EN" "http://www.w3.org/Graphics/SVG/1.1/DTD/svg11.dtd">
<svg version="1.1" id="Layer_1" xmlns="http://www.w3.org/2000/svg" xmlns:xlink="http://www.w3.org/1999/xlink" x="0px" y="0px"
	 width="100px" height="100px" viewBox="0 0 100 100" enable-background="new 0 0 100 100" xml:space="preserve">
<g>
	<rect x="37.779" y="86.865" width="41.667" height="1"/>
	<rect x="37.779" y="88.865" width="41.667" height="3.333"/>
	<path d="M58.612,7.802c-11.485,0-20.833,9.347-20.833,20.833V45.32v15.296c0,0.276-0.224,0.5-0.5,0.5c-0.274,0-0.5-0.224-0.5-0.5
		V45.424l-2.377-5.456c-0.13-0.355-0.255-0.645-0.396-0.91c-1.252-2.369-3.669-3.827-6.318-3.827c-3.935,0-7.135,3.201-7.135,7.135
		c0,1.13,0.263,2.219,0.782,3.236l16.396,34.55c0.032,0.065,0.048,0.141,0.048,0.214v5.5h41.667v-57.23
		C79.446,17.148,70.103,7.802,58.612,7.802z M62.771,80.74h-8.312c-0.276,0-0.5-0.225-0.5-0.5c0-0.276,0.224-0.5,0.5-0.5h8.312
		c0.275,0,0.5,0.224,0.5,0.5C63.271,80.516,63.046,80.74,62.771,80.74z M62.771,78.74h-8.312c-0.276,0-0.5-0.225-0.5-0.5
		c0-0.276,0.224-0.5,0.5-0.5h8.312c0.275,0,0.5,0.224,0.5,0.5C63.271,78.516,63.046,78.74,62.771,78.74z M63.124,73.919
		c0.193,0.194,0.193,0.513,0,0.707c-0.1,0.099-0.227,0.146-0.354,0.146s-0.258-0.049-0.354-0.146l-3.804-3.804l-3.803,3.804
		c-0.098,0.099-0.227,0.146-0.354,0.146c-0.128,0-0.257-0.049-0.354-0.146c-0.195-0.194-0.195-0.513,0-0.707l3.803-3.804
		l-3.803-3.803c-0.195-0.195-0.195-0.514,0-0.707c0.194-0.195,0.512-0.195,0.707,0l3.803,3.803l3.804-3.803
		c0.194-0.195,0.512-0.195,0.707,0c0.194,0.193,0.194,0.512,0,0.707l-3.804,3.803L63.124,73.919z M63.124,63.919
		c0.193,0.194,0.193,0.513,0,0.707c-0.1,0.099-0.227,0.146-0.354,0.146s-0.258-0.049-0.354-0.146l-3.804-3.804l-3.803,3.804
		c-0.098,0.099-0.227,0.146-0.354,0.146c-0.128,0-0.257-0.049-0.354-0.146c-0.195-0.194-0.195-0.513,0-0.707l3.803-3.804
		l-3.803-3.803c-0.195-0.195-0.195-0.514,0-0.707c0.194-0.195,0.512-0.195,0.707,0l3.803,3.803l3.804-3.803
		c0.194-0.195,0.512-0.195,0.707,0c0.194,0.193,0.194,0.512,0,0.707l-3.804,3.803L63.124,63.919z M63.124,53.919
		c0.193,0.194,0.193,0.513,0,0.707c-0.1,0.099-0.227,0.146-0.354,0.146s-0.258-0.049-0.354-0.146l-3.804-3.804l-3.803,3.804
		c-0.098,0.099-0.227,0.146-0.354,0.146c-0.128,0-0.257-0.049-0.354-0.146c-0.195-0.194-0.195-0.513,0-0.707l3.803-3.804
		l-3.803-3.803c-0.195-0.195-0.195-0.513,0-0.707c0.194-0.195,0.512-0.195,0.707,0l3.803,3.803l3.804-3.803
		c0.194-0.195,0.512-0.195,0.707,0c0.194,0.194,0.194,0.512,0,0.707l-3.804,3.803L63.124,53.919z M63.124,43.918
		c0.193,0.195,0.193,0.512,0,0.707c-0.1,0.099-0.227,0.146-0.354,0.146s-0.258-0.049-0.354-0.146l-3.804-3.803l-3.803,3.803
		c-0.098,0.099-0.227,0.146-0.354,0.146c-0.128,0-0.257-0.049-0.354-0.146c-0.195-0.195-0.195-0.512,0-0.707l3.803-3.803
		l-3.803-3.803c-0.195-0.195-0.195-0.513,0-0.707c0.194-0.195,0.512-0.195,0.707,0l3.803,3.803l3.804-3.803
		c0.194-0.195,0.512-0.195,0.707,0c0.194,0.194,0.194,0.512,0,0.707l-3.804,3.803L63.124,43.918z M63.124,33.918
		c0.193,0.195,0.193,0.512,0,0.707c-0.1,0.099-0.227,0.146-0.354,0.146s-0.258-0.049-0.354-0.146l-3.804-3.803l-3.803,3.803
		c-0.098,0.099-0.227,0.146-0.354,0.146c-0.128,0-0.257-0.049-0.354-0.146c-0.195-0.195-0.195-0.512,0-0.707l3.803-3.803
		l-3.803-3.803c-0.195-0.195-0.195-0.513,0-0.707c0.194-0.195,0.512-0.195,0.707,0l3.803,3.803l3.804-3.803
		c0.194-0.195,0.512-0.195,0.707,0c0.194,0.194,0.194,0.512,0,0.707l-3.804,3.803L63.124,33.918z M62.771,22.115h-8.312
		c-0.276,0-0.5-0.224-0.5-0.5c0-0.276,0.224-0.5,0.5-0.5h8.312c0.275,0,0.5,0.224,0.5,0.5
		C63.271,21.891,63.046,22.115,62.771,22.115z M62.771,20.115h-8.312c-0.276,0-0.5-0.224-0.5-0.5c0-0.276,0.224-0.5,0.5-0.5h8.312
		c0.275,0,0.5,0.224,0.5,0.5C63.271,19.891,63.046,20.115,62.771,20.115z"/>
</g>
</svg>
