<?xml version="1.0" encoding="iso-8859-1"?>
<!-- Generator: Adobe Illustrator 16.0.0, SVG Export Plug-In . SVG Version: 6.00 Build 0)  -->
<!DOCTYPE svg PUBLIC "-//W3C//DTD SVG 1.1//EN" "http://www.w3.org/Graphics/SVG/1.1/DTD/svg11.dtd">
<svg version="1.1" id="Layer_1" xmlns="http://www.w3.org/2000/svg" xmlns:xlink="http://www.w3.org/1999/xlink" x="0px" y="0px"
	 width="23.719px" height="31.395px" viewBox="0 0 23.719 31.395" style="enable-background:new 0 0 23.719 31.395;"
	 xml:space="preserve">
<g>
	<path d="M7.141,18.816c-0.597,0-1.08,0.482-1.08,1.08c0,0.596,0.483,1.08,1.08,1.08s1.08-0.484,1.08-1.08
		C8.221,19.299,7.737,18.816,7.141,18.816z M7.141,20.398c-0.26,0-0.471-0.211-0.471-0.471s0.211-0.472,0.471-0.472
		c-0.053,0.055-0.086,0.128-0.086,0.211c0,0.165,0.135,0.301,0.301,0.301c0.098,0,0.18-0.049,0.234-0.119
		c0.006,0.026,0.021,0.05,0.021,0.079C7.611,20.188,7.4,20.398,7.141,20.398z"/>
	<path d="M8.902,17.694c0.062,0.182,0.529,1.003,0.496,2.24c-0.031,1.214-0.67,2.018-0.74,2.114c-0.069,0.097,0.381,0.536,0.5,0.402
		c0.117-0.132,0.844-1.063,0.881-2.499c0.038-1.415-0.502-2.42-0.572-2.563C9.396,17.248,8.842,17.512,8.902,17.694z"/>
	<path d="M1.025,4.408V1.549l0.438-0.526h21.563V0H0.984L0.002,1.179v3.229H0v26.986h23.719V4.408H1.025z M4.816,8.164h15.516v1.521
		H4.816V8.164z M20.953,24.077c-0.807,0.261-1.322-2.075-1.709-2.349c-0.547-0.39-1.063,0.002-1.537,0.433
		c-0.091,0.089-0.189,0.18-0.295,0.271c-0.01,0.009-0.02,0.018-0.029,0.027c-0.003,0.002-0.005,0.004-0.008,0.006
		c-0.914,0.787-2.33,1.623-4.382,1.899c0.364,0.412,0.632,0.844,0.351,1.01c-0.604,0.354-1.661,0.236-2.4,0.118
		c-0.51-0.081-0.99-0.75-1.24-1.158c-4.8-0.663-6.391-3.766-6.319-4.182c0.063-0.371,1.261-2.999,5.323-4.009
		c0.32-0.629,1.517-2.555,3.998-2.106c2.262,0.408,3.249,2.233,3.588,3.068c0.836,0.659,1.412,1.454,1.793,2.145
		c0.031,0.056,0.06,0.109,0.088,0.163c0.146,0.228,0.486,0.584,1.098,0.317c1.158-0.504,1.307-3.225,2.137-2.649
		c0.96,0.667-0.308,2.283-0.348,3.469C21.017,21.836,21.761,23.816,20.953,24.077z"/>
</g>
<g>
</g>
<g>
</g>
<g>
</g>
<g>
</g>
<g>
</g>
<g>
</g>
<g>
</g>
<g>
</g>
<g>
</g>
<g>
</g>
<g>
</g>
<g>
</g>
<g>
</g>
<g>
</g>
<g>
</g>
</svg>
