<?xml version="1.0" encoding="utf-8"?>
<!-- Generator: Adobe Illustrator 16.0.4, SVG Export Plug-In . SVG Version: 6.00 Build 0)  -->
<!DOCTYPE svg PUBLIC "-//W3C//DTD SVG 1.1//EN" "http://www.w3.org/Graphics/SVG/1.1/DTD/svg11.dtd">
<svg version="1.1" id="Layer_1" xmlns="http://www.w3.org/2000/svg" xmlns:xlink="http://www.w3.org/1999/xlink" x="0px" y="0px"
	 width="50px" height="50px" viewBox="0 0 50 50" enable-background="new 0 0 50 50" xml:space="preserve">
<g>
	<path d="M37.165,18.306c-0.013-0.625-0.204-1.266-0.601-1.833c-0.698-0.998-1.78-1.542-3.018-1.469
		c-1.549,0.096-3.511,0.758-5.408,1.398l-0.943,0.316c-0.78,0.259-1.525,0.296-2.469,0.343c-1.225,0.061-2.748,0.136-4.895,0.757
		c-3.238,0.938-5.473,2.558-6.461,4.683c-0.367,0.788-0.54,1.637-0.546,2.507c-0.002,0.002-0.013,0.012-0.013,0.012v2.633
		c-0.005,0.951,0.205,1.929,0.628,2.883c1.133,2.547,4.412,4.468,7.629,4.468c2.243,0,4.326-0.889,6.024-2.571
		c1.486-1.472,2.021-2.42,2.59-3.424c0.393-0.695,0.797-1.412,1.586-2.373c0.676-0.824,1.541-1.227,2.457-1.653
		c1.297-0.604,2.639-1.229,3.301-3.043c0.121-0.335,0.174-0.694,0.158-1.057l0.006-2.551C37.182,18.32,37.171,18.314,37.165,18.306z
		 M14.564,23.056c0.823-1.77,2.771-3.144,5.633-3.973c1.999-0.579,3.376-0.647,4.593-0.708c1.003-0.049,1.87-0.093,2.819-0.408
		l0.949-0.318c1.816-0.613,3.694-1.247,5.069-1.332l0.138-0.004c0.687,0,1.312,0.333,1.719,0.914
		c0.363,0.519,0.479,1.142,0.303,1.625c-0.475,1.301-1.421,1.743-2.621,2.301c-0.961,0.448-2.051,0.956-2.918,2.012
		c-0.859,1.049-1.295,1.817-1.715,2.562c-0.542,0.961-1.012,1.791-2.369,3.135c-1.446,1.434-3.208,2.19-5.097,2.19
		c-2.996,0-5.62-1.875-6.425-3.686C14.178,26.32,13.788,24.726,14.564,23.056z"/>
	<path d="M21.068,29.734c1.556,0,2.959-0.608,4.17-1.81c1.225-1.212,1.632-1.932,2.147-2.843c0.428-0.758,0.911-1.614,1.846-2.753
		c1.057-1.288,2.346-1.888,3.381-2.37c1.248-0.582,1.674-0.831,1.938-1.558c0.012-0.051-0.017-0.237-0.145-0.419
		c-0.092-0.132-0.299-0.353-0.639-0.353c-1.258,0.077-3.051,0.682-4.783,1.267l-0.957,0.321c-1.121,0.372-2.114,0.421-3.167,0.474
		c-1.149,0.057-2.445,0.122-4.295,0.657c-2.486,0.72-4.148,1.848-4.807,3.263c-0.567,1.221-0.265,2.425,0.089,3.22
		C16.467,28.227,18.64,29.734,21.068,29.734z M20.951,22.426c1.716,0,3.107,0.976,3.107,2.182c0,1.204-1.391,2.181-3.107,2.181
		c-1.717,0-3.108-0.977-3.108-2.181C17.843,23.402,19.234,22.426,20.951,22.426z"/>
</g>
</svg>
