<?xml version="1.0" encoding="utf-8"?>
<!-- Generator: Adobe Illustrator 16.0.4, SVG Export Plug-In . SVG Version: 6.00 Build 0)  -->
<!DOCTYPE svg PUBLIC "-//W3C//DTD SVG 1.1//EN" "http://www.w3.org/Graphics/SVG/1.1/DTD/svg11.dtd">
<svg version="1.1" id="Layer_1" xmlns="http://www.w3.org/2000/svg" xmlns:xlink="http://www.w3.org/1999/xlink" x="0px" y="0px"
	 width="112px" height="112px" viewBox="0 0 112 112" enable-background="new 0 0 112 112" xml:space="preserve">
<path d="M105.803,56c-4.404,0-5.861-3.243-6.65-4.788c-2.038-3.99-5.264-10.099-10.896-13.347
	c-2.165,3.463-3.032,5.199-3.896,10.612c-3.463-17.542,2.986-29.288,3.92-34.473c-6.348,1.61-15.615,7.621-18.615,15.722
	c-1.559-0.924-6.227-1.727-7.611-1.727H45.79c-15.929,0-32.31,11.381-35.776,29.979c-2.4,0.64-5.347-0.853-5.347-4.313
	c0-4.741,5.908-4.592,6.196-2.431C10.863,44.299,0,45.349,0,54.323c0,9.155,5.709,10.771,9.337,10.875
	c0,0.045-0.003,0.089-0.003,0.135c0,9.771,4.718,18.647,12.404,25.293c1.097,0.951,3.337,3.322,2.585,7.146
	c-0.753,3.822-2.035,10.164-2.035,10.164L42.602,112c0,0,0.742-2.968,1.246-6.227c0.504-3.256,3.123-3.719,6.202-3.43
	c1.951,0.178,3.931,0.321,5.95,0.321c2.464,0,4.877-0.172,7.232-0.479c1.377-0.183,4.104-0.242,4.731,2.646
	c0.626,2.884,1.435,7.168,1.435,7.168l20.312-4.063c0,0-1.745-8.093-2.202-10.553c-0.458-2.459,1.345-4.34,2.226-5.113
	c3.002-2.634,5.502-5.651,6.828-8.605c0.793-1.778,3.514-4.33,7.346-4.33c3.037,0,8.092,0,8.092,0V56H105.803z M86.334,70
	c-3.865,0-7-3.136-7-7s3.135-7,7-7c3.863,0,7,3.136,7,7S90.197,70,86.334,70z M34.3,23.333c-1.017-2.128-1.633-4.485-1.633-7
	C32.667,7.312,39.979,0,49,0s16.334,7.312,16.334,16.333c0,2.515-0.617,4.872-1.634,7H34.3z"/>
</svg>
