<?xml version="1.0" encoding="iso-8859-1"?>
<!-- Generator: Adobe Illustrator 16.0.0, SVG Export Plug-In . SVG Version: 6.00 Build 0)  -->
<!DOCTYPE svg PUBLIC "-//W3C//DTD SVG 1.1//EN" "http://www.w3.org/Graphics/SVG/1.1/DTD/svg11.dtd">
<svg version="1.1" id="Layer_1" xmlns="http://www.w3.org/2000/svg" xmlns:xlink="http://www.w3.org/1999/xlink" x="0px" y="0px"
	 width="23.719px" height="31.395px" viewBox="0 0 23.719 31.395" style="enable-background:new 0 0 23.719 31.395;"
	 xml:space="preserve">
<g>
	<path d="M10.99,21.976c0.021-0.097,0.045-0.193,0.073-0.291c-0.044-0.039-0.388-0.313-0.999-0.3
		C10.429,21.856,10.787,21.961,10.99,21.976z"/>
	<path d="M12.576,22.045c-0.065,0.187-0.107,0.377-0.13,0.559c0.359-0.171,0.928-0.369,1.446-0.222
		c0.363,0.104,0.59,0.24,0.737,0.366c0.11-0.111,0.23-0.226,0.361-0.342c-0.206-0.182-0.566-0.457-0.97-0.574
		C13.631,21.721,12.855,21.92,12.576,22.045z"/>
	<path d="M13.416,21.043c-0.172,0.084-0.314,0.193-0.434,0.317c0.408-0.093,0.868-0.134,1.185-0.043
		c0.555,0.159,1.021,0.54,1.248,0.751c0.122-0.087,0.25-0.165,0.382-0.24C15.516,21.416,14.672,20.423,13.416,21.043z"/>
	<path d="M9.484,21.488c-0.154,0.045-0.319,0.112-0.494,0.2c0.259,0.144,0.555,0.34,0.732,0.568
		c0.052,0.066,0.087,0.152,0.126,0.234l0.016-0.007c0.054,0.111,0.406,0.447,0.763,0.562c0.089,0.028,0.163,0.034,0.23,0.029
		c0.004-0.169,0.017-0.362,0.042-0.569C10.535,22.467,9.978,22.256,9.484,21.488z"/>
	<path d="M1.026,4.408V1.549l0.438-0.526h21.563V0H0.985L0.003,1.179v3.229H0v26.986h23.719V4.408H1.026z M18.269,22.165
		c-0.42-0.273-0.956-0.322-1.591-0.145c-0.976,0.272-1.803,1.213-2.129,1.626h-0.44l-0.152-0.104c0.014-0.02,0.13-0.182,0.312-0.398
		c-0.086-0.07-0.239-0.166-0.525-0.247c-0.457-0.131-1.083,0.178-1.325,0.33c0.009,0.241,0.036,0.404,0.037,0.409l-0.061,0.01h-0.48
		c-0.038-0.268-0.121-1.14,0.206-1.931l-0.007-0.007c0.004-0.004,0.013-0.008,0.017-0.013c0.189-0.447,0.507-0.868,1.048-1.136
		c1.498-0.737,2.642,0.29,3.111,1.036c0.081-0.03,0.159-0.069,0.242-0.093c0.107-0.03,0.207-0.041,0.31-0.061
		c-0.203-0.513-0.979-1.946-3.189-1.573c-2.49,0.422-2.291,3.361-2.25,3.776h-0.537c-0.001-0.009-0.001-0.023-0.002-0.034
		c-0.012,0.001-0.023,0.005-0.036,0.005c-0.116,0-0.238-0.021-0.366-0.061c-0.132-0.042-0.264-0.109-0.391-0.188
		c0.011,0.112,0.016,0.209,0.018,0.277H9.552c-0.013-0.335-0.086-0.846-0.253-1.061c-0.18-0.23-0.596-0.452-0.861-0.574
		c-0.132,0.092-0.252,0.181-0.36,0.27c0.214,0.125,0.468,0.293,0.635,0.471c0.278,0.302,0.317,0.706,0.319,0.895H8.496
		c-0.001-0.11-0.021-0.362-0.176-0.529c-0.151-0.162-0.44-0.335-0.653-0.45c-0.431,0.473-0.54,0.855-0.563,0.979H6.563
		c0.013-0.148,0.167-1.241,1.87-2.276c1.436-0.871,2.425-0.457,2.816-0.21c0.058-0.134,0.122-0.266,0.197-0.394
		c-0.278-0.233-1.279-0.89-2.947,0.014c-1.907,1.032-2.406,2.451-2.515,2.866H5.432c0.059-0.295,0.497-2.085,2.812-3.338
		c1.89-1.023,3.102-0.312,3.517,0.021c0.402-0.473,0.975-0.848,1.802-0.988c2.795-0.473,3.675,1.604,3.831,2.051
		c0.434,0.002,0.83,0.102,1.172,0.326c0.83,0.545,1.103,1.569,1.176,1.928H19.19C19.104,23.292,18.858,22.552,18.269,22.165z
		 M18.594,23.646h-0.552c-0.073-0.234-0.274-0.678-0.755-0.678c-0.548,0-0.998,0.41-1.235,0.678h-0.53L15.42,23.58
		c0.031-0.046,0.773-1.147,1.866-1.147C18.131,22.433,18.502,23.198,18.594,23.646z M10.611,15.88
		c0.787,0.704,0.133,2.765,0.133,2.765s0.322-1.718-0.62-2.335c-1.139-0.747,0.202-2.491,0.202-2.491S9.823,15.176,10.611,15.88z
		 M12.291,15.281c0.927,0.828,0.158,3.252,0.158,3.252s0.378-2.019-0.729-2.745c-1.341-0.881,0.236-2.931,0.236-2.931
		S11.365,14.454,12.291,15.281z M14.035,15.645c0.788,0.704,0.134,2.766,0.134,2.766s0.322-1.717-0.62-2.335
		c-1.14-0.748,0.201-2.491,0.201-2.491S13.248,14.941,14.035,15.645z M4.206,8.372h15.515v1.521H4.206V8.372z M16.342,26.541
		c-0.846,0-2.342,0.005-3.837,0.009c-0.007,0-0.014,0-0.02,0s-0.013,0-0.02,0c-1.496-0.004-2.992-0.009-3.837-0.009
		c-1.575,0-4.267-2.503-4.267-2.503s4.18-0.013,8.104-0.014c0.007,0,0.014,0,0.02,0s0.013,0,0.02,0
		c3.925,0.001,8.104,0.014,8.104,0.014S17.918,26.541,16.342,26.541z"/>
</g>
<g>
</g>
<g>
</g>
<g>
</g>
<g>
</g>
<g>
</g>
<g>
</g>
<g>
</g>
<g>
</g>
<g>
</g>
<g>
</g>
<g>
</g>
<g>
</g>
<g>
</g>
<g>
</g>
<g>
</g>
</svg>
