<?xml version="1.0" encoding="iso-8859-1"?>
<!-- Generator: Adobe Illustrator 16.0.0, SVG Export Plug-In . SVG Version: 6.00 Build 0)  -->
<!DOCTYPE svg PUBLIC "-//W3C//DTD SVG 1.1//EN" "http://www.w3.org/Graphics/SVG/1.1/DTD/svg11.dtd">
<svg version="1.1" id="Layer_1" xmlns="http://www.w3.org/2000/svg" xmlns:xlink="http://www.w3.org/1999/xlink" x="0px" y="0px"
	 width="32px" height="23.44px" viewBox="0 0 32 23.44" style="enable-background:new 0 0 32 23.44;" xml:space="preserve">
<g>
	<path d="M31.988,2.983l-1.457-0.5l0.012-1.246c0,0-3.212-1.237-7.292-1.237c-3.426,0-6.321,0.879-7.248,1.195
		C15.077,0.879,12.182,0,8.756,0c-4.08,0-7.148,1.213-7.148,1.213l0.011,1.388L0,3.03l0.008,20.41l1.088-0.458
		c0.037-0.015,3.689-1.531,7.06-1.531c2.888,0,6.267,0.851,7.284,1.126l0.679,0.193l0.635-0.204
		c0.911-0.277,3.917-1.115,6.745-1.115c3.346,0,7.396,1.527,7.437,1.542L32,23.397L31.988,2.983z M15.253,20.582
		c-1.449-0.38-4.21-1.003-6.709-1.003c-2.438,0-4.926,0.592-6.285,0.976V2.709c1.32-0.352,3.586-0.837,6.122-0.837
		c3.104,0,5.829,0.73,6.872,1.05V20.582z M29.749,20.582c-1.449-0.38-4.21-1.003-6.71-1.003c-2.336,0-4.707,0.542-6.097,0.925V2.919
		c1.029-0.318,3.708-1.047,6.778-1.047c2.494,0,4.724,0.481,6.028,0.834V20.582z"/>
	<path d="M19.306,4.943c0.023-0.004,2.311-0.421,4.625-0.421c2.309,0,4.381,0.415,4.401,0.42l0.179-0.605
		c-0.088-0.019-2.178-0.438-4.58-0.438c-2.398,0-4.691,0.419-4.787,0.436L19.306,4.943z"/>
	<path d="M28.332,6.646l0.179-0.606c-0.088-0.019-2.178-0.438-4.58-0.438c-2.399,0-4.69,0.419-4.787,0.437l0.163,0.609
		c0.022-0.004,2.307-0.422,4.624-0.422C26.239,6.225,28.311,6.641,28.332,6.646z"/>
	<path d="M19.306,8.273c0.023-0.005,2.311-0.422,4.625-0.422c2.308,0,4.38,0.416,4.401,0.42l0.179-0.606
		c-0.088-0.019-2.178-0.438-4.58-0.438c-2.399,0-4.692,0.418-4.788,0.437L19.306,8.273z"/>
	<path d="M23.93,9.555c2.309,0,4.381,0.415,4.401,0.419l0.179-0.605c-0.088-0.019-2.178-0.438-4.58-0.438
		c-2.4,0-4.691,0.418-4.787,0.437l0.163,0.608C19.329,9.971,21.612,9.555,23.93,9.555z"/>
	<path d="M23.93,11.202c2.309,0,4.381,0.416,4.401,0.42l0.179-0.605c-0.088-0.018-2.178-0.438-4.58-0.438
		c-2.398,0-4.691,0.419-4.787,0.437l0.163,0.609C19.329,11.62,21.617,11.202,23.93,11.202z"/>
	<path d="M23.93,12.28c-2.399,0-4.69,0.42-4.787,0.438l0.163,0.608c0.022-0.003,2.307-0.421,4.624-0.421
		c2.31,0,4.381,0.415,4.401,0.42l0.179-0.605C28.422,12.701,26.333,12.28,23.93,12.28z"/>
	<path d="M19.144,14.34l0.163,0.608c0.022-0.003,2.307-0.421,4.624-0.421c2.308,0,4.38,0.415,4.401,0.421l0.179-0.606
		c-0.088-0.019-2.178-0.438-4.58-0.438C21.532,13.903,19.24,14.322,19.144,14.34z"/>
	<path d="M19.144,15.958l0.163,0.609c0.022-0.005,2.307-0.422,4.624-0.422c2.309,0,4.381,0.416,4.401,0.419l0.179-0.605
		c-0.088-0.018-2.178-0.438-4.581-0.438C21.532,15.521,19.24,15.939,19.144,15.958z"/>
	<path d="M19.144,17.683l0.163,0.609c0.022-0.005,2.311-0.422,4.624-0.422c2.309,0,4.381,0.416,4.401,0.419l0.179-0.605
		c-0.088-0.018-2.178-0.438-4.581-0.438C21.532,17.246,19.24,17.664,19.144,17.683z"/>
	<path d="M8.227,7.1C8.083,7.093,7.94,7.084,7.797,7.078C7.291,7.056,6.863,7.486,6.808,7.973C6.449,8.069,6.113,8.216,5.831,8.452
		C5.573,8.669,5.468,9.003,5.492,9.329c-0.841,0.239-1.416,0.707-1.206,1.592H3.899l2.282,4.878h5.664l2.281-4.878h-0.36
		c-0.048-0.381-0.274-0.729-0.706-0.813c0.013-0.03,0.028-0.058,0.04-0.092c0.3-0.829-0.323-1.25-1.001-1.439
		c0.027-0.283-0.057-0.583-0.263-0.836c-0.16-0.194-0.405-0.312-0.683-0.385c-0.053-0.253-0.188-0.479-0.448-0.613
		c-0.129-0.067-0.259-0.133-0.388-0.199c-0.056-0.029-0.112-0.06-0.167-0.09C9.931,5.554,8.465,5.301,8.229,6.39
		C8.169,6.66,8.175,6.894,8.227,7.1z M6.63,15.5l-1.512-4.104l0.345-0.004l1.521,4.084L6.63,15.5z M7.56,15.478L6.783,11.42
		l0.319-0.009l0.809,4.066H7.56z M12.532,11.393l0.335,0.019l-1.476,4.09l-0.344-0.023L12.532,11.393z M11.074,11.387l0.325,0.024
		l-0.843,4.086l-0.31,0.009L11.074,11.387z M9.609,11.411l0.313,0.022l-0.229,4.044H9.396L9.609,11.411z M8.554,11.387l0.271,4.08
		l-0.314,0.019l-0.271-4.08L8.554,11.387z"/>
</g>
<g>
</g>
<g>
</g>
<g>
</g>
<g>
</g>
<g>
</g>
<g>
</g>
<g>
</g>
<g>
</g>
<g>
</g>
<g>
</g>
<g>
</g>
<g>
</g>
<g>
</g>
<g>
</g>
<g>
</g>
</svg>
