<?xml version="1.0" encoding="iso-8859-1"?>
<!-- Generator: Adobe Illustrator 16.0.4, SVG Export Plug-In . SVG Version: 6.00 Build 0)  -->
<!DOCTYPE svg PUBLIC "-//W3C//DTD SVG 1.1//EN" "http://www.w3.org/Graphics/SVG/1.1/DTD/svg11.dtd">
<svg version="1.1" id="Capa_1" xmlns="http://www.w3.org/2000/svg" xmlns:xlink="http://www.w3.org/1999/xlink" x="0px" y="0px"
	 width="12.18px" height="15px" viewBox="0 0 12.18 15" style="enable-background:new 0 0 12.18 15;" xml:space="preserve">
<path style="fill:#010002;" d="M4.351,12.173c0,0.84-0.682,1.522-1.523,1.522s-1.522-0.682-1.522-1.522
	c0-0.606,0.357-1.126,0.87-1.371V7.171H3.48v3.631C3.993,11.047,4.351,11.567,4.351,12.173z M6.525,4.778h5.654v-0.87H6.525V4.778z
	 M5.654,12.173C5.654,13.731,4.387,15,2.827,15C1.269,15,0,13.731,0,12.173c0-0.958,0.498-1.857,1.305-2.375V1.517
	C1.309,0.679,1.989,0,2.828,0c0.837,0,1.519,0.679,1.522,1.517c0,0.002,0,0.004,0,0.005v8.275
	C5.156,10.315,5.654,11.215,5.654,12.173z M5.221,12.173c0-0.846-0.46-1.639-1.198-2.066l-0.108-0.062V1.522
	c0-0.6-0.486-1.087-1.086-1.087c-0.601,0-1.089,0.487-1.089,1.087l0,0v8.522l-0.107,0.062c-0.738,0.428-1.197,1.221-1.197,2.066
	c0,1.319,1.074,2.392,2.393,2.392C4.146,14.565,5.221,13.492,5.221,12.173z"/>
<g>
</g>
<g>
</g>
<g>
</g>
<g>
</g>
<g>
</g>
<g>
</g>
<g>
</g>
<g>
</g>
<g>
</g>
<g>
</g>
<g>
</g>
<g>
</g>
<g>
</g>
<g>
</g>
<g>
</g>
</svg>
