<?xml version="1.0" encoding="utf-8"?>
<!-- Generator: Adobe Illustrator 16.0.0, SVG Export Plug-In . SVG Version: 6.00 Build 0)  -->
<!DOCTYPE svg PUBLIC "-//W3C//DTD SVG 1.1//EN" "http://www.w3.org/Graphics/SVG/1.1/DTD/svg11.dtd">
<svg version="1.1" id="Layer_1" xmlns="http://www.w3.org/2000/svg" xmlns:xlink="http://www.w3.org/1999/xlink" x="0px" y="0px"
	 width="50px" height="50px" viewBox="0 0 50 50" enable-background="new 0 0 50 50" xml:space="preserve">
<g>
	<path d="M37.803,27.262l-0.002-0.073c0.121-0.706,0.197-1.427,0.198-2.165l0.004-0.021l-0.004-0.019
		c-0.001-0.739-0.077-1.46-0.197-2.166l0.002-0.072l-0.021-0.054c-0.127-0.708-0.314-1.393-0.552-2.056l-0.012-0.079l-0.043-0.07
		c-0.247-0.663-0.541-1.303-0.888-1.91l-0.025-0.075l-0.065-0.073c-0.361-0.614-0.763-1.201-1.217-1.745l-0.02-0.036l-0.049-0.04
		c-0.465-0.547-0.973-1.056-1.521-1.52l-0.033-0.042l-0.032-0.018c-0.547-0.458-1.138-0.863-1.757-1.228l-0.065-0.058l-0.066-0.022
		c-0.614-0.352-1.261-0.65-1.932-0.899l-0.058-0.035l-0.065-0.01c-0.671-0.241-1.364-0.432-2.08-0.56l-0.044-0.018l-0.058,0.002
		C26.484,12.078,25.752,12,25.001,12c-0.747,0-1.476,0.077-2.188,0.199l-0.068-0.001l-0.047,0.019
		c-0.714,0.128-1.405,0.317-2.074,0.558l-0.068,0.011l-0.061,0.037c-0.668,0.248-1.312,0.544-1.923,0.894l-0.072,0.024l-0.071,0.063
		c-0.614,0.361-1.202,0.764-1.746,1.218l-0.037,0.021l-0.039,0.049c-0.545,0.463-1.052,0.97-1.516,1.516l-0.048,0.038l-0.021,0.037
		c-0.456,0.546-0.859,1.137-1.223,1.753L13.741,18.5l-0.022,0.067c-0.351,0.611-0.647,1.256-0.896,1.924l-0.039,0.063l-0.011,0.072
		c-0.24,0.668-0.429,1.358-0.557,2.072l-0.019,0.046l0.001,0.063c-0.121,0.711-0.198,1.437-0.198,2.181l-0.003,0.013l0.003,0.014
		c0.001,0.745,0.078,1.473,0.2,2.185l-0.002,0.061l0.019,0.051c0.129,0.713,0.318,1.402,0.558,2.07l0.011,0.067l0.027,0.036
		c0.25,0.677,0.55,1.328,0.903,1.946l0.024,0.071l0.049,0.049c0.365,0.622,0.771,1.216,1.23,1.767l0.023,0.042l0.05,0.038
		c0.461,0.542,0.964,1.045,1.506,1.506l0.047,0.059l0.048,0.027c0.539,0.448,1.119,0.845,1.726,1.202l0.08,0.07l0.064,0.018
		c0.608,0.349,1.248,0.644,1.913,0.892l0.08,0.049l0.102,0.018c0.653,0.232,1.327,0.417,2.022,0.543l0.065,0.025l0.088,0.008
		l0.03-0.006c0.684,0.114,1.381,0.188,2.096,0.189L25,38.006l0.038-0.008c0.721-0.002,1.423-0.076,2.111-0.191l0.02,0.004
		l0.087-0.008l0.05-0.02c0.706-0.127,1.389-0.313,2.05-0.55l0.09-0.016l0.069-0.042c0.668-0.249,1.312-0.546,1.922-0.896
		l0.064-0.018l0.08-0.07c0.607-0.358,1.188-0.755,1.728-1.204l0.046-0.026l0.045-0.057c0.543-0.461,1.047-0.965,1.508-1.507
		l0.051-0.039l0.024-0.044c0.457-0.548,0.86-1.14,1.225-1.758l0.054-0.054l0.027-0.08c0.351-0.614,0.648-1.262,0.896-1.935
		l0.031-0.04l0.012-0.077c0.237-0.661,0.426-1.345,0.554-2.051L37.803,27.262z M35.892,27.428l0.823,0.147
		c-0.078,0.357-0.17,0.711-0.279,1.056l-0.787-0.288c-0.257-0.093-0.547,0.039-0.642,0.298s0.038,0.547,0.298,0.642l0.786,0.288
		c-0.14,0.338-0.297,0.667-0.466,0.989l-2.081-1.202c-0.238-0.139-0.544-0.056-0.683,0.183c-0.139,0.239-0.057,0.545,0.183,0.683
		l2.076,1.199c-0.195,0.308-0.405,0.604-0.627,0.892l-0.63-0.53c-0.212-0.176-0.525-0.15-0.705,0.061
		c-0.178,0.211-0.15,0.526,0.061,0.705l0.629,0.53c-0.245,0.269-0.502,0.525-0.771,0.771l-0.525-0.629
		c-0.178-0.215-0.495-0.241-0.704-0.063c-0.212,0.178-0.24,0.492-0.063,0.704l0.529,0.633c-0.288,0.222-0.586,0.432-0.894,0.628
		l-1.198-2.077c-0.138-0.239-0.443-0.322-0.683-0.183c-0.239,0.138-0.321,0.443-0.183,0.683l1.201,2.081
		c-0.322,0.169-0.65,0.326-0.988,0.466l-0.285-0.785c-0.094-0.261-0.381-0.396-0.641-0.3c-0.259,0.094-0.394,0.381-0.299,0.641
		l0.286,0.788c-0.346,0.11-0.699,0.201-1.057,0.28l-0.145-0.822c-0.047-0.273-0.322-0.461-0.578-0.406
		c-0.272,0.048-0.454,0.307-0.406,0.578l0.144,0.817c-0.358,0.047-0.721,0.077-1.088,0.092l0.001-2.396c0-0.276-0.224-0.5-0.5-0.5
		s-0.5,0.224-0.5,0.5L24.5,36.975c-0.365-0.016-0.727-0.044-1.083-0.092l0.144-0.813c0.048-0.272-0.134-0.531-0.405-0.579
		c-0.265-0.054-0.532,0.134-0.579,0.405l-0.145,0.82c-0.358-0.078-0.712-0.169-1.057-0.278l0.285-0.786
		c0.095-0.26-0.039-0.547-0.299-0.641c-0.261-0.094-0.547,0.039-0.641,0.299l-0.285,0.783c-0.339-0.14-0.668-0.297-0.991-0.466
		l1.204-2.084c0.139-0.239,0.057-0.545-0.183-0.683c-0.238-0.139-0.543-0.057-0.683,0.183l-1.201,2.079
		c-0.307-0.195-0.604-0.405-0.891-0.626l0.528-0.63c0.178-0.211,0.15-0.526-0.062-0.704c-0.211-0.178-0.526-0.15-0.704,0.062
		l-0.527,0.628c-0.27-0.245-0.526-0.502-0.772-0.771l0.629-0.528c0.212-0.178,0.239-0.493,0.062-0.704
		c-0.178-0.213-0.492-0.241-0.704-0.062l-0.631,0.529c-0.223-0.288-0.433-0.586-0.63-0.895l2.081-1.2
		c0.239-0.138,0.321-0.443,0.183-0.683c-0.138-0.239-0.444-0.322-0.683-0.183l-2.086,1.203c-0.169-0.321-0.325-0.649-0.465-0.987
		l0.787-0.286c0.26-0.094,0.394-0.381,0.299-0.641c-0.094-0.259-0.381-0.395-0.641-0.299l-0.79,0.287
		c-0.11-0.346-0.201-0.699-0.28-1.057l0.825-0.146c0.271-0.048,0.453-0.307,0.405-0.579c-0.047-0.272-0.312-0.459-0.579-0.405
		l-0.818,0.145c-0.048-0.359-0.077-0.722-0.093-1.09l2.401,0.001c0.276,0,0.5-0.224,0.5-0.5s-0.224-0.5-0.5-0.5l-2.401-0.001
		c0.015-0.366,0.044-0.729,0.092-1.087l0.818,0.146l0.088,0.008c0.237,0,0.448-0.17,0.491-0.413
		c0.049-0.271-0.133-0.531-0.405-0.579l-0.825-0.146c0.079-0.358,0.17-0.712,0.279-1.058l0.79,0.289l0.172,0.03
		c0.204,0,0.396-0.126,0.47-0.328c0.095-0.26-0.039-0.547-0.298-0.642l-0.789-0.288c0.14-0.339,0.297-0.668,0.467-0.99l2.084,1.205
		l0.25,0.067c0.172,0,0.34-0.09,0.433-0.25c0.139-0.239,0.057-0.545-0.183-0.683l-2.08-1.202c0.196-0.308,0.405-0.604,0.627-0.892
		l0.632,0.531c0.094,0.079,0.208,0.117,0.322,0.117c0.143,0,0.283-0.061,0.383-0.178c0.178-0.212,0.15-0.527-0.061-0.705
		l-0.631-0.531c0.245-0.269,0.502-0.525,0.771-0.771l0.528,0.631c0.1,0.118,0.241,0.179,0.384,0.179
		c0.113,0,0.228-0.038,0.321-0.116c0.211-0.178,0.239-0.493,0.062-0.705l-0.53-0.634c0.287-0.222,0.584-0.432,0.892-0.627
		l1.199,2.08c0.093,0.16,0.261,0.25,0.434,0.25l0.25-0.066c0.239-0.139,0.321-0.444,0.184-0.684l-1.203-2.086
		c0.322-0.169,0.65-0.326,0.989-0.466l0.285,0.787c0.073,0.203,0.266,0.329,0.47,0.329l0.171-0.03
		c0.259-0.094,0.394-0.381,0.299-0.641l-0.286-0.79c0.346-0.109,0.698-0.201,1.057-0.279l0.145,0.822
		c0.042,0.243,0.253,0.414,0.491,0.414l0.087-0.008c0.272-0.048,0.454-0.307,0.406-0.578l-0.144-0.818
		c0.358-0.047,0.722-0.076,1.089-0.092L24.5,15.428c0,0.276,0.224,0.5,0.5,0.5s0.5-0.224,0.5-0.5l0.001-2.402
		c0.367,0.016,0.729,0.045,1.088,0.092l-0.146,0.819c-0.049,0.271,0.133,0.531,0.405,0.579l0.088,0.008
		c0.237,0,0.448-0.17,0.491-0.413l0.146-0.825c0.358,0.078,0.711,0.17,1.057,0.279l-0.288,0.789
		c-0.095,0.26,0.039,0.547,0.298,0.642l0.172,0.03c0.204,0,0.396-0.126,0.47-0.328l0.288-0.788c0.339,0.14,0.668,0.297,0.99,0.467
		l-1.203,2.082c-0.139,0.239-0.057,0.545,0.183,0.683l0.25,0.067c0.172,0,0.34-0.09,0.433-0.25l1.201-2.077
		c0.307,0.196,0.604,0.405,0.891,0.628l-0.531,0.63c-0.179,0.211-0.151,0.526,0.06,0.704c0.094,0.079,0.208,0.118,0.322,0.118
		c0.142,0,0.283-0.061,0.382-0.178l0.531-0.631c0.27,0.246,0.526,0.503,0.771,0.771l-0.63,0.526
		c-0.212,0.177-0.24,0.492-0.063,0.704c0.099,0.118,0.241,0.18,0.384,0.18c0.113,0,0.227-0.038,0.32-0.116l0.634-0.529
		c0.222,0.288,0.432,0.586,0.628,0.894l-2.077,1.197c-0.239,0.139-0.321,0.444-0.184,0.684c0.093,0.16,0.261,0.25,0.434,0.25
		l0.25-0.066l2.082-1.2c0.169,0.321,0.325,0.649,0.465,0.986l-0.786,0.284c-0.26,0.095-0.395,0.381-0.301,0.641
		c0.074,0.204,0.266,0.33,0.471,0.33l0.17-0.029l0.791-0.286c0.109,0.346,0.2,0.698,0.279,1.057l-0.823,0.144
		c-0.272,0.047-0.454,0.306-0.406,0.578c0.042,0.243,0.253,0.414,0.491,0.414l0.087-0.008l0.818-0.143
		c0.048,0.358,0.077,0.722,0.092,1.089l-2.397-0.001c-0.276,0-0.5,0.224-0.5,0.5s0.224,0.5,0.5,0.5l2.397,0.001
		c-0.016,0.366-0.045,0.729-0.092,1.086l-0.815-0.146c-0.269-0.045-0.532,0.132-0.58,0.404
		C35.438,27.119,35.619,27.379,35.892,27.428z"/>
	<path d="M25.001,17.503L23.502,25h-4.928c0,3.55,2.877,6.427,6.426,6.427c3.55,0,6.427-2.877,6.427-6.427H26.5L25.001,17.503z
		 M23.94,26.063c-0.293-0.293-0.438-0.677-0.438-1.061h2.982l0.99,2.475L23.94,26.063z"/>
</g>
</svg>
