<?xml version="1.0" encoding="utf-8"?>
<!-- Generator: Adobe Illustrator 16.0.4, SVG Export Plug-In . SVG Version: 6.00 Build 0)  -->
<!DOCTYPE svg PUBLIC "-//W3C//DTD SVG 1.1//EN" "http://www.w3.org/Graphics/SVG/1.1/DTD/svg11.dtd">
<svg version="1.1" id="Capa_1" xmlns="http://www.w3.org/2000/svg" xmlns:xlink="http://www.w3.org/1999/xlink" x="0px" y="0px"
	 width="64px" height="64px" viewBox="0 0 64 64" enable-background="new 0 0 64 64" xml:space="preserve">
<g>
	<path d="M48.352,37.582c0-0.979-0.537-1.825-1.326-2.286c0.024-0.458,0.043-0.918,0.043-1.383c0-1.457-0.137-2.913-0.387-4.336
		c0.75-0.47,1.254-1.297,1.254-2.245c0-1.455-1.177-2.637-2.627-2.652c-0.684-1.725-1.557-3.372-2.601-4.904
		c0.245-0.402,0.394-0.868,0.394-1.372c0-1.464-1.191-2.655-2.656-2.655c-0.34,0-0.662,0.07-0.961,0.187
		c-1.549-1.511-3.28-2.814-5.157-3.879c0.008-0.079,0.024-0.156,0.024-0.237c0-1.464-1.191-2.655-2.656-2.655
		c-0.773,0-1.465,0.338-1.951,0.869c-2.092-0.683-4.267-1.085-6.478-1.2C22.916,7.778,21.93,7.01,20.758,7.01
		c-1.236,0-2.271,0.854-2.563,2c-0.071-0.019-0.142-0.041-0.218-0.041L17.86,8.978c-5.451,0.668-10.617,3.168-14.546,7.04
		c-0.167,0.164-0.26,0.383-0.262,0.617c-0.002,0.233,0.087,0.454,0.253,0.622c0.166,0.167,0.388,0.259,0.622,0.259
		c0.235,0.001,0.454-0.089,0.617-0.251c3.654-3.601,8.46-5.927,13.53-6.55c0.079-0.009,0.15-0.043,0.223-0.073
		c0.391,0.981,1.346,1.679,2.464,1.679c1.14,0,2.105-0.725,2.481-1.735c1.985,0.109,3.938,0.468,5.817,1.068
		c-0.003,0.056-0.017,0.11-0.017,0.167c0,1.464,1.191,2.655,2.655,2.655c0.748,0,1.423-0.314,1.907-0.814
		c1.647,0.951,3.176,2.101,4.551,3.427c-0.225,0.389-0.362,0.835-0.362,1.316c0,1.464,1.19,2.655,2.655,2.655
		c0.316,0,0.617-0.065,0.9-0.168c0.92,1.367,1.692,2.829,2.305,4.359c-0.62,0.486-1.026,1.234-1.026,2.082
		c0,1.358,1.028,2.469,2.347,2.624c0.223,1.3,0.348,2.628,0.348,3.957c0,0.355-0.018,0.705-0.032,1.055
		c-1.269,0.2-2.244,1.291-2.244,2.614c0,1.04,0.606,1.935,1.481,2.369c-0.416,1.556-0.988,3.063-1.713,4.493
		c-0.069-0.006-0.138-0.021-0.209-0.021c-1.465,0-2.655,1.191-2.655,2.655c0,0.472,0.134,0.909,0.351,1.294
		c-0.865,1.096-1.834,2.118-2.885,3.048c-0.38-0.211-0.812-0.342-1.275-0.342c-1.465,0-2.656,1.19-2.656,2.655
		c0,0.086,0.019,0.166,0.025,0.25c-0.084,0.019-0.169,0.037-0.244,0.082c-1.424,0.843-2.943,1.533-4.517,2.057
		c-0.458,0.15-0.707,0.646-0.556,1.104c0.119,0.359,0.453,0.602,0.831,0.602c0.096,0,0.189-0.016,0.275-0.044
		c1.684-0.56,3.318-1.302,4.857-2.211c0.018-0.011,0.025-0.027,0.043-0.039c0.484,0.522,1.172,0.854,1.939,0.854
		c1.463,0,2.654-1.19,2.654-2.654c0-0.36-0.073-0.705-0.205-1.02c1.096-0.969,2.104-2.035,3.016-3.181
		c0.311,0.127,0.646,0.198,1,0.198c1.465,0,2.655-1.19,2.655-2.654c0-0.762-0.327-1.445-0.843-1.93
		c0.794-1.586,1.422-3.258,1.863-4.979C47.462,39.902,48.352,38.846,48.352,37.582z M20.761,11.321
		c-0.913,0-1.655-0.743-1.655-1.655c-0.001-0.913,0.742-1.655,1.655-1.655c0.913,0,1.655,0.743,1.655,1.655
		C22.416,10.579,21.674,11.321,20.761,11.321z M31.698,13.476c-0.913,0-1.655-0.743-1.655-1.655c0-0.912,0.742-1.655,1.655-1.655
		s1.655,0.743,1.655,1.655C33.354,12.734,32.611,13.476,31.698,13.476z M40.448,20.06c-0.913,0-1.655-0.743-1.655-1.655
		c0-0.912,0.742-1.655,1.655-1.655s1.655,0.743,1.655,1.655C42.104,19.317,41.361,20.06,40.448,20.06z M36.139,55.391
		c-0.914,0-1.656-0.742-1.656-1.656c0-0.912,0.742-1.654,1.656-1.654c0.912,0,1.654,0.742,1.654,1.654S37.051,55.391,36.139,55.391z
		 M42.604,48.734c-0.914,0-1.655-0.742-1.655-1.655s0.741-1.655,1.655-1.655c0.912,0,1.654,0.742,1.654,1.655
		C44.259,47.992,43.518,48.734,42.604,48.734z M45.282,28.988c-0.913,0-1.655-0.743-1.655-1.655s0.742-1.655,1.655-1.655
		s1.655,0.743,1.655,1.655S46.195,28.988,45.282,28.988z M44.044,37.583c0-0.913,0.742-1.655,1.655-1.655
		c0.912,0,1.654,0.742,1.654,1.655s-0.742,1.655-1.654,1.655C44.786,39.238,44.044,38.496,44.044,37.583z"/>
	<path d="M40.486,33.914c0-1.104-0.105-2.212-0.317-3.313l-0.022-0.182c-1.672-8.717-9.325-15.044-18.197-15.044
		c-10.223,0-18.539,8.317-18.539,18.539c-0.001,10.225,8.316,18.54,18.538,18.54C32.171,52.454,40.486,44.139,40.486,33.914z
		 M38.249,29.934l-7.694,1.458l7.255-2.922C37.984,28.972,38.131,29.456,38.249,29.934z M21.109,34.16
		c0.108,0.371,0.453,0.629,0.839,0.629l12.194-2.296c0.062,0.515,0.094,0.983,0.094,1.421c0,6.777-5.512,12.29-12.288,12.29
		c-6.776,0-12.289-5.513-12.289-12.29c0-6.776,5.513-12.289,12.289-12.289c4.698,0,8.989,2.696,11.038,6.901l-11.364,4.576
		C21.202,33.271,20.981,33.727,21.109,34.16z M21.948,50.704c-9.258,0-16.789-7.532-16.789-16.79
		c0-9.257,7.531-16.789,16.789-16.789c6.528,0,12.459,3.802,15.217,9.719l-2.552,1.027c-2.32-4.869-7.252-7.996-12.665-7.996
		c-7.741,0-14.039,6.298-14.039,14.039c0,7.742,6.298,14.04,14.039,14.04c7.741,0,14.038-6.298,14.038-14.04
		c0-0.543-0.039-1.118-0.121-1.748l2.699-0.512c0.115,0.817,0.172,1.56,0.172,2.26C38.736,43.172,31.206,50.704,21.948,50.704z"/>
	<polygon points="45.355,15.103 45.355,18.546 46.938,18.546 46.938,13.691 45.721,13.691 44.281,14.084 44.57,15.275 	"/>
	<path d="M48.396,17.898c0.199,0.229,0.44,0.412,0.727,0.548c0.284,0.135,0.609,0.203,0.979,0.203c0.361,0,0.688-0.069,0.978-0.206
		c0.29-0.138,0.532-0.321,0.731-0.551c0.201-0.229,0.354-0.497,0.459-0.802c0.106-0.305,0.158-0.623,0.158-0.954v-0.014
		c0-0.331-0.052-0.648-0.154-0.95c-0.104-0.303-0.254-0.569-0.455-0.799c-0.199-0.229-0.442-0.412-0.729-0.547
		c-0.286-0.135-0.61-0.203-0.974-0.203c-0.367,0-0.694,0.069-0.982,0.207c-0.285,0.138-0.529,0.321-0.729,0.551
		c-0.2,0.229-0.353,0.497-0.459,0.802c-0.104,0.305-0.157,0.624-0.157,0.954v0.014c0,0.33,0.052,0.647,0.155,0.95
		C48.045,17.402,48.195,17.669,48.396,17.898z M49.384,16.122L49.384,16.122c0.001-0.331,0.065-0.597,0.193-0.799
		c0.128-0.202,0.304-0.303,0.522-0.303c0.11,0,0.211,0.027,0.299,0.082c0.09,0.055,0.168,0.131,0.231,0.227
		c0.063,0.097,0.113,0.214,0.147,0.351c0.035,0.138,0.052,0.29,0.052,0.455v0.014c0,0.33-0.063,0.597-0.193,0.798
		c-0.127,0.203-0.302,0.304-0.522,0.304c-0.109,0-0.209-0.028-0.299-0.083s-0.166-0.131-0.23-0.227
		c-0.064-0.096-0.113-0.213-0.148-0.351c-0.035-0.138-0.052-0.289-0.052-0.455V16.122z"/>
	<path d="M51.596,24.307c-0.171,0.089-0.328,0.201-0.473,0.333c-0.145,0.133-0.286,0.285-0.423,0.455l1.06,0.902
		c0.202-0.215,0.373-0.369,0.514-0.461c0.141-0.092,0.278-0.138,0.418-0.138c0.138,0,0.242,0.033,0.318,0.1
		c0.076,0.066,0.114,0.153,0.114,0.258c0,0.092-0.032,0.186-0.097,0.283c-0.064,0.096-0.172,0.197-0.324,0.302l-1.996,1.433v1.17
		h4.062v-1.26h-1.881l0.86-0.551c0.144-0.092,0.272-0.189,0.394-0.29c0.119-0.101,0.223-0.211,0.31-0.331
		c0.087-0.119,0.153-0.251,0.2-0.396c0.046-0.145,0.068-0.309,0.068-0.493v-0.014c0-0.229-0.047-0.44-0.142-0.634
		c-0.095-0.193-0.226-0.359-0.394-0.499s-0.367-0.249-0.6-0.327c-0.23-0.078-0.484-0.117-0.76-0.117
		c-0.253,0-0.479,0.023-0.68,0.069C51.95,24.149,51.766,24.217,51.596,24.307z"/>
	<path d="M59.79,25.57c-0.104-0.303-0.255-0.569-0.455-0.798c-0.198-0.23-0.442-0.412-0.729-0.548
		c-0.287-0.135-0.612-0.203-0.976-0.203c-0.366,0-0.694,0.068-0.981,0.206s-0.529,0.322-0.729,0.551s-0.354,0.497-0.457,0.802
		c-0.105,0.305-0.158,0.623-0.158,0.954v0.014c0,0.331,0.051,0.647,0.154,0.95c0.104,0.303,0.255,0.569,0.455,0.799
		c0.199,0.229,0.441,0.412,0.725,0.547c0.284,0.136,0.61,0.204,0.979,0.204c0.361,0,0.688-0.069,0.979-0.207
		c0.288-0.138,0.533-0.321,0.732-0.551c0.199-0.229,0.354-0.497,0.458-0.802c0.104-0.305,0.157-0.623,0.157-0.954V26.52
		C59.943,26.19,59.893,25.873,59.79,25.57z M58.346,26.548c0,0.331-0.063,0.597-0.193,0.798c-0.129,0.202-0.303,0.303-0.522,0.303
		c-0.108,0-0.21-0.027-0.3-0.083c-0.089-0.055-0.166-0.131-0.23-0.227c-0.064-0.097-0.113-0.214-0.148-0.351
		c-0.033-0.138-0.051-0.289-0.051-0.455V26.52c0-0.33,0.064-0.596,0.192-0.799c0.13-0.202,0.304-0.303,0.523-0.303
		c0.11,0,0.211,0.027,0.3,0.082s0.166,0.131,0.23,0.228c0.063,0.096,0.113,0.213,0.146,0.351c0.035,0.138,0.053,0.29,0.053,0.455
		V26.548z"/>
	<path d="M53.514,40.799c0.238-0.07,0.449-0.176,0.631-0.312c0.181-0.139,0.324-0.307,0.43-0.508c0.105-0.199,0.158-0.43,0.158-0.69
		v-0.015c0-0.381-0.106-0.681-0.323-0.897c-0.216-0.218-0.505-0.375-0.867-0.472l1.081-0.812v-1.107h-3.704v1.252h1.79l-1.061,0.841
		l0.213,0.716h0.683c0.215,0,0.375,0.035,0.478,0.104c0.104,0.068,0.155,0.164,0.155,0.283v0.014c0,0.115-0.048,0.207-0.143,0.279
		c-0.093,0.07-0.229,0.105-0.409,0.105c-0.202,0-0.398-0.045-0.585-0.135c-0.188-0.09-0.372-0.219-0.552-0.389l-0.956,0.983
		c0.266,0.274,0.579,0.489,0.937,0.642c0.358,0.15,0.787,0.225,1.287,0.225C53.023,40.904,53.275,40.869,53.514,40.799z"/>
	<path d="M59.18,36.628c-0.199-0.229-0.443-0.411-0.729-0.547s-0.611-0.203-0.974-0.203c-0.367,0-0.694,0.067-0.981,0.206
		c-0.286,0.139-0.529,0.32-0.729,0.552c-0.199,0.229-0.352,0.496-0.457,0.802c-0.105,0.307-0.158,0.625-0.158,0.953v0.016
		c0,0.33,0.052,0.646,0.154,0.949c0.102,0.303,0.252,0.57,0.452,0.799c0.199,0.229,0.441,0.412,0.728,0.548
		c0.285,0.136,0.609,0.202,0.978,0.202c0.363,0,0.688-0.068,0.978-0.206c0.291-0.138,0.535-0.321,0.733-0.55
		c0.199-0.23,0.353-0.498,0.458-0.803c0.105-0.306,0.158-0.623,0.158-0.955v-0.013c0-0.331-0.053-0.647-0.154-0.951
		C59.531,37.124,59.38,36.859,59.18,36.628z M58.189,38.406c0,0.33-0.063,0.597-0.193,0.798c-0.127,0.202-0.303,0.304-0.521,0.304
		c-0.111,0-0.209-0.027-0.3-0.083c-0.09-0.056-0.167-0.131-0.231-0.228c-0.064-0.096-0.113-0.213-0.147-0.352
		c-0.034-0.138-0.052-0.289-0.052-0.455v-0.012h0.001c0-0.331,0.063-0.598,0.192-0.799c0.129-0.202,0.304-0.305,0.522-0.305
		c0.11,0,0.21,0.029,0.3,0.084s0.166,0.131,0.23,0.226c0.064,0.099,0.113,0.214,0.148,0.353c0.033,0.138,0.051,0.289,0.051,0.453
		V38.406z"/>
	<path d="M50.525,45.74h-1.797l-2.354,2.892l0.263,1.129h2.319v0.833h1.569v-0.833h0.578v-1.136h-0.578V45.74z M48.956,48.646
		h-1.024l1.024-1.28V48.646z"/>
	<path d="M55.607,46.404c-0.199-0.229-0.442-0.412-0.729-0.547c-0.287-0.137-0.61-0.203-0.976-0.203
		c-0.368,0-0.695,0.068-0.982,0.205c-0.287,0.139-0.529,0.322-0.729,0.553c-0.199,0.229-0.354,0.496-0.457,0.801
		c-0.106,0.307-0.159,0.624-0.159,0.954v0.015c0,0.33,0.052,0.646,0.155,0.949c0.103,0.303,0.254,0.57,0.455,0.799
		c0.198,0.229,0.44,0.412,0.726,0.547c0.284,0.138,0.61,0.203,0.979,0.203c0.36,0,0.688-0.068,0.978-0.205
		c0.289-0.139,0.532-0.322,0.731-0.552c0.2-0.229,0.354-0.497,0.459-0.802c0.104-0.307,0.157-0.623,0.157-0.954v-0.015
		c0-0.329-0.051-0.646-0.153-0.949C55.958,46.9,55.807,46.634,55.607,46.404z M54.617,48.182c0,0.33-0.062,0.596-0.192,0.799
		c-0.129,0.201-0.302,0.304-0.522,0.304c-0.109,0-0.211-0.028-0.299-0.084c-0.09-0.056-0.168-0.13-0.231-0.228
		c-0.063-0.096-0.113-0.213-0.147-0.352c-0.033-0.137-0.052-0.289-0.052-0.454v-0.015c0-0.329,0.063-0.596,0.193-0.797
		c0.128-0.203,0.303-0.305,0.522-0.305c0.109,0,0.211,0.027,0.299,0.083s0.166,0.132,0.23,0.228
		c0.064,0.098,0.114,0.213,0.146,0.352c0.035,0.139,0.053,0.289,0.053,0.454V48.182z"/>
</g>
</svg>
