<?xml version="1.0" encoding="utf-8"?>
<!-- Generator: Adobe Illustrator 17.0.0, SVG Export Plug-In . SVG Version: 6.00 Build 0)  -->
<!DOCTYPE svg PUBLIC "-//W3C//DTD SVG 1.1//EN" "http://www.w3.org/Graphics/SVG/1.1/DTD/svg11.dtd">
<svg version="1.1" id="Layer_1" xmlns="http://www.w3.org/2000/svg" xmlns:xlink="http://www.w3.org/1999/xlink" x="0px" y="0px"
	 width="32px" height="32px" viewBox="0 0 32 32" enable-background="new 0 0 32 32" xml:space="preserve">
<g>
	<path d="M5.987,0.359c-0.488,0-0.954,0.207-1.281,0.57C4.379,1.291,4.221,1.776,4.271,2.262l2.793,26.944l0.371,0.321
		c0.35,0.311,2.392,1.856,8.529,1.856c6.14,0,8.183-1.541,8.53-1.852l0.372-0.326l2.792-26.944c0.05-0.486-0.108-0.97-0.436-1.333
		c-0.327-0.363-0.793-0.57-1.281-0.57H5.987z M22.431,27.801c-0.744,0.354-2.642,1.015-6.466,1.015c-3.847,0-5.743-0.669-6.463-1.01
		L7.119,4.805c-0.05-0.486,0.108-0.97,0.436-1.333c0.327-0.363,0.792-0.57,1.281-0.57h14.26c0.489,0,0.954,0.207,1.281,0.57
		c0.327,0.363,0.485,0.847,0.435,1.333L22.431,27.801z"/>
	<path d="M10.37,10.935l1.403,14.908c0,0,1.479,0.802,3.94,0.802c2.466,0,4.695-0.802,4.695-0.802l1.335-14.202
		c-0.468,0.023-0.939,0.056-1.4,0.047C17.338,11.626,13.648,10.784,10.37,10.935z"/>
</g>
</svg>
